G04 MADE WITH FRITZING*
G04 WWW.FRITZING.ORG*
G04 DOUBLE SIDED*
G04 HOLES PLATED*
G04 CONTOUR ON CENTER OF CONTOUR VECTOR*
%ASAXBY*%
%FSLAX23Y23*%
%MOIN*%
%OFA0B0*%
%SFA1.0B1.0*%
%ADD10C,0.010000*%
%ADD11R,0.001000X0.001000*%
%LNSILK0*%
G90*
G70*
G54D10*
X151Y647D02*
X751Y647D01*
D02*
X751Y647D02*
X751Y547D01*
D02*
X751Y547D02*
X151Y547D01*
D02*
X151Y547D02*
X151Y647D01*
G54D11*
X0Y794D02*
X900Y794D01*
X0Y793D02*
X900Y793D01*
X0Y792D02*
X900Y792D01*
X0Y791D02*
X900Y791D01*
X0Y790D02*
X900Y790D01*
X0Y789D02*
X900Y789D01*
X0Y788D02*
X900Y788D01*
X0Y787D02*
X900Y787D01*
X0Y786D02*
X7Y786D01*
X893Y786D02*
X900Y786D01*
X0Y785D02*
X7Y785D01*
X893Y785D02*
X900Y785D01*
X0Y784D02*
X7Y784D01*
X893Y784D02*
X900Y784D01*
X0Y783D02*
X7Y783D01*
X893Y783D02*
X900Y783D01*
X0Y782D02*
X7Y782D01*
X893Y782D02*
X900Y782D01*
X0Y781D02*
X7Y781D01*
X893Y781D02*
X900Y781D01*
X0Y780D02*
X7Y780D01*
X893Y780D02*
X900Y780D01*
X0Y779D02*
X7Y779D01*
X893Y779D02*
X900Y779D01*
X0Y778D02*
X7Y778D01*
X893Y778D02*
X900Y778D01*
X0Y777D02*
X7Y777D01*
X893Y777D02*
X900Y777D01*
X0Y776D02*
X7Y776D01*
X893Y776D02*
X900Y776D01*
X0Y775D02*
X7Y775D01*
X893Y775D02*
X900Y775D01*
X0Y774D02*
X7Y774D01*
X893Y774D02*
X900Y774D01*
X0Y773D02*
X7Y773D01*
X893Y773D02*
X900Y773D01*
X0Y772D02*
X7Y772D01*
X893Y772D02*
X900Y772D01*
X0Y771D02*
X7Y771D01*
X893Y771D02*
X900Y771D01*
X0Y770D02*
X7Y770D01*
X893Y770D02*
X900Y770D01*
X0Y769D02*
X7Y769D01*
X893Y769D02*
X900Y769D01*
X0Y768D02*
X7Y768D01*
X893Y768D02*
X900Y768D01*
X0Y767D02*
X7Y767D01*
X893Y767D02*
X900Y767D01*
X0Y766D02*
X7Y766D01*
X893Y766D02*
X900Y766D01*
X0Y765D02*
X7Y765D01*
X893Y765D02*
X900Y765D01*
X0Y764D02*
X7Y764D01*
X893Y764D02*
X900Y764D01*
X0Y763D02*
X7Y763D01*
X893Y763D02*
X900Y763D01*
X0Y762D02*
X7Y762D01*
X893Y762D02*
X900Y762D01*
X0Y761D02*
X7Y761D01*
X893Y761D02*
X900Y761D01*
X0Y760D02*
X7Y760D01*
X893Y760D02*
X900Y760D01*
X0Y759D02*
X7Y759D01*
X893Y759D02*
X900Y759D01*
X0Y758D02*
X7Y758D01*
X893Y758D02*
X900Y758D01*
X0Y757D02*
X7Y757D01*
X893Y757D02*
X900Y757D01*
X0Y756D02*
X7Y756D01*
X893Y756D02*
X900Y756D01*
X0Y755D02*
X7Y755D01*
X893Y755D02*
X900Y755D01*
X0Y754D02*
X7Y754D01*
X893Y754D02*
X900Y754D01*
X0Y753D02*
X7Y753D01*
X893Y753D02*
X900Y753D01*
X0Y752D02*
X7Y752D01*
X893Y752D02*
X900Y752D01*
X0Y751D02*
X7Y751D01*
X893Y751D02*
X900Y751D01*
X0Y750D02*
X7Y750D01*
X893Y750D02*
X900Y750D01*
X0Y749D02*
X7Y749D01*
X893Y749D02*
X900Y749D01*
X0Y748D02*
X7Y748D01*
X893Y748D02*
X900Y748D01*
X0Y747D02*
X7Y747D01*
X893Y747D02*
X900Y747D01*
X0Y746D02*
X7Y746D01*
X893Y746D02*
X900Y746D01*
X0Y745D02*
X7Y745D01*
X893Y745D02*
X900Y745D01*
X0Y744D02*
X7Y744D01*
X893Y744D02*
X900Y744D01*
X0Y743D02*
X7Y743D01*
X893Y743D02*
X900Y743D01*
X0Y742D02*
X7Y742D01*
X893Y742D02*
X900Y742D01*
X0Y741D02*
X7Y741D01*
X893Y741D02*
X900Y741D01*
X0Y740D02*
X7Y740D01*
X893Y740D02*
X900Y740D01*
X0Y739D02*
X7Y739D01*
X893Y739D02*
X900Y739D01*
X0Y738D02*
X7Y738D01*
X893Y738D02*
X900Y738D01*
X0Y737D02*
X7Y737D01*
X893Y737D02*
X900Y737D01*
X0Y736D02*
X7Y736D01*
X893Y736D02*
X900Y736D01*
X0Y735D02*
X7Y735D01*
X893Y735D02*
X900Y735D01*
X0Y734D02*
X7Y734D01*
X893Y734D02*
X900Y734D01*
X0Y733D02*
X7Y733D01*
X893Y733D02*
X900Y733D01*
X0Y732D02*
X7Y732D01*
X893Y732D02*
X900Y732D01*
X0Y731D02*
X7Y731D01*
X893Y731D02*
X900Y731D01*
X0Y730D02*
X7Y730D01*
X893Y730D02*
X900Y730D01*
X0Y729D02*
X7Y729D01*
X893Y729D02*
X900Y729D01*
X0Y728D02*
X7Y728D01*
X893Y728D02*
X900Y728D01*
X0Y727D02*
X7Y727D01*
X893Y727D02*
X900Y727D01*
X0Y726D02*
X7Y726D01*
X893Y726D02*
X900Y726D01*
X0Y725D02*
X7Y725D01*
X893Y725D02*
X900Y725D01*
X0Y724D02*
X7Y724D01*
X893Y724D02*
X900Y724D01*
X0Y723D02*
X7Y723D01*
X893Y723D02*
X900Y723D01*
X0Y722D02*
X7Y722D01*
X893Y722D02*
X900Y722D01*
X0Y721D02*
X7Y721D01*
X893Y721D02*
X900Y721D01*
X0Y720D02*
X7Y720D01*
X893Y720D02*
X900Y720D01*
X0Y719D02*
X7Y719D01*
X893Y719D02*
X900Y719D01*
X0Y718D02*
X7Y718D01*
X893Y718D02*
X900Y718D01*
X0Y717D02*
X7Y717D01*
X893Y717D02*
X900Y717D01*
X0Y716D02*
X7Y716D01*
X893Y716D02*
X900Y716D01*
X0Y715D02*
X7Y715D01*
X893Y715D02*
X900Y715D01*
X0Y714D02*
X7Y714D01*
X893Y714D02*
X900Y714D01*
X0Y713D02*
X7Y713D01*
X893Y713D02*
X900Y713D01*
X0Y712D02*
X7Y712D01*
X893Y712D02*
X900Y712D01*
X0Y711D02*
X7Y711D01*
X893Y711D02*
X900Y711D01*
X0Y710D02*
X7Y710D01*
X893Y710D02*
X900Y710D01*
X0Y709D02*
X7Y709D01*
X893Y709D02*
X900Y709D01*
X0Y708D02*
X7Y708D01*
X893Y708D02*
X900Y708D01*
X0Y707D02*
X7Y707D01*
X893Y707D02*
X900Y707D01*
X0Y706D02*
X7Y706D01*
X893Y706D02*
X900Y706D01*
X0Y705D02*
X7Y705D01*
X893Y705D02*
X900Y705D01*
X0Y704D02*
X7Y704D01*
X893Y704D02*
X900Y704D01*
X0Y703D02*
X7Y703D01*
X893Y703D02*
X900Y703D01*
X0Y702D02*
X7Y702D01*
X893Y702D02*
X900Y702D01*
X0Y701D02*
X7Y701D01*
X893Y701D02*
X900Y701D01*
X0Y700D02*
X7Y700D01*
X893Y700D02*
X900Y700D01*
X0Y699D02*
X7Y699D01*
X893Y699D02*
X900Y699D01*
X0Y698D02*
X7Y698D01*
X893Y698D02*
X900Y698D01*
X0Y697D02*
X7Y697D01*
X893Y697D02*
X900Y697D01*
X0Y696D02*
X7Y696D01*
X893Y696D02*
X900Y696D01*
X0Y695D02*
X7Y695D01*
X893Y695D02*
X900Y695D01*
X0Y694D02*
X7Y694D01*
X893Y694D02*
X900Y694D01*
X0Y693D02*
X7Y693D01*
X893Y693D02*
X900Y693D01*
X0Y692D02*
X7Y692D01*
X893Y692D02*
X900Y692D01*
X0Y691D02*
X7Y691D01*
X893Y691D02*
X900Y691D01*
X0Y690D02*
X7Y690D01*
X893Y690D02*
X900Y690D01*
X0Y689D02*
X7Y689D01*
X893Y689D02*
X900Y689D01*
X0Y688D02*
X7Y688D01*
X893Y688D02*
X900Y688D01*
X0Y687D02*
X7Y687D01*
X893Y687D02*
X900Y687D01*
X0Y686D02*
X7Y686D01*
X893Y686D02*
X900Y686D01*
X0Y685D02*
X7Y685D01*
X893Y685D02*
X900Y685D01*
X0Y684D02*
X7Y684D01*
X893Y684D02*
X900Y684D01*
X0Y683D02*
X7Y683D01*
X893Y683D02*
X900Y683D01*
X0Y682D02*
X7Y682D01*
X893Y682D02*
X900Y682D01*
X0Y681D02*
X7Y681D01*
X893Y681D02*
X900Y681D01*
X0Y680D02*
X7Y680D01*
X893Y680D02*
X900Y680D01*
X0Y679D02*
X7Y679D01*
X893Y679D02*
X900Y679D01*
X0Y678D02*
X7Y678D01*
X893Y678D02*
X900Y678D01*
X0Y677D02*
X7Y677D01*
X893Y677D02*
X900Y677D01*
X0Y676D02*
X7Y676D01*
X893Y676D02*
X900Y676D01*
X0Y675D02*
X7Y675D01*
X893Y675D02*
X900Y675D01*
X0Y674D02*
X7Y674D01*
X893Y674D02*
X900Y674D01*
X0Y673D02*
X7Y673D01*
X893Y673D02*
X900Y673D01*
X0Y672D02*
X7Y672D01*
X893Y672D02*
X900Y672D01*
X0Y671D02*
X7Y671D01*
X893Y671D02*
X900Y671D01*
X0Y670D02*
X7Y670D01*
X893Y670D02*
X900Y670D01*
X0Y669D02*
X7Y669D01*
X893Y669D02*
X900Y669D01*
X0Y668D02*
X7Y668D01*
X893Y668D02*
X900Y668D01*
X0Y667D02*
X7Y667D01*
X893Y667D02*
X900Y667D01*
X0Y666D02*
X7Y666D01*
X893Y666D02*
X900Y666D01*
X0Y665D02*
X7Y665D01*
X893Y665D02*
X900Y665D01*
X0Y664D02*
X7Y664D01*
X893Y664D02*
X900Y664D01*
X0Y663D02*
X7Y663D01*
X893Y663D02*
X900Y663D01*
X0Y662D02*
X7Y662D01*
X893Y662D02*
X900Y662D01*
X0Y661D02*
X7Y661D01*
X893Y661D02*
X900Y661D01*
X0Y660D02*
X7Y660D01*
X893Y660D02*
X900Y660D01*
X0Y659D02*
X7Y659D01*
X893Y659D02*
X900Y659D01*
X0Y658D02*
X7Y658D01*
X893Y658D02*
X900Y658D01*
X0Y657D02*
X7Y657D01*
X893Y657D02*
X900Y657D01*
X0Y656D02*
X7Y656D01*
X893Y656D02*
X900Y656D01*
X0Y655D02*
X7Y655D01*
X893Y655D02*
X900Y655D01*
X0Y654D02*
X7Y654D01*
X893Y654D02*
X900Y654D01*
X0Y653D02*
X7Y653D01*
X893Y653D02*
X900Y653D01*
X0Y652D02*
X7Y652D01*
X893Y652D02*
X900Y652D01*
X0Y651D02*
X7Y651D01*
X893Y651D02*
X900Y651D01*
X0Y650D02*
X7Y650D01*
X893Y650D02*
X900Y650D01*
X0Y649D02*
X7Y649D01*
X184Y649D02*
X184Y649D01*
X893Y649D02*
X900Y649D01*
X0Y648D02*
X7Y648D01*
X183Y648D02*
X185Y648D01*
X893Y648D02*
X900Y648D01*
X0Y647D02*
X7Y647D01*
X182Y647D02*
X186Y647D01*
X893Y647D02*
X900Y647D01*
X0Y646D02*
X7Y646D01*
X181Y646D02*
X187Y646D01*
X893Y646D02*
X900Y646D01*
X0Y645D02*
X7Y645D01*
X180Y645D02*
X186Y645D01*
X893Y645D02*
X900Y645D01*
X0Y644D02*
X7Y644D01*
X179Y644D02*
X185Y644D01*
X893Y644D02*
X900Y644D01*
X0Y643D02*
X7Y643D01*
X178Y643D02*
X184Y643D01*
X893Y643D02*
X900Y643D01*
X0Y642D02*
X7Y642D01*
X177Y642D02*
X183Y642D01*
X893Y642D02*
X900Y642D01*
X0Y641D02*
X7Y641D01*
X176Y641D02*
X182Y641D01*
X893Y641D02*
X900Y641D01*
X0Y640D02*
X7Y640D01*
X175Y640D02*
X181Y640D01*
X893Y640D02*
X900Y640D01*
X0Y639D02*
X7Y639D01*
X174Y639D02*
X180Y639D01*
X893Y639D02*
X900Y639D01*
X0Y638D02*
X7Y638D01*
X173Y638D02*
X179Y638D01*
X893Y638D02*
X900Y638D01*
X0Y637D02*
X7Y637D01*
X172Y637D02*
X178Y637D01*
X893Y637D02*
X900Y637D01*
X0Y636D02*
X7Y636D01*
X171Y636D02*
X177Y636D01*
X893Y636D02*
X900Y636D01*
X0Y635D02*
X7Y635D01*
X170Y635D02*
X176Y635D01*
X893Y635D02*
X900Y635D01*
X0Y634D02*
X7Y634D01*
X169Y634D02*
X175Y634D01*
X893Y634D02*
X900Y634D01*
X0Y633D02*
X7Y633D01*
X168Y633D02*
X174Y633D01*
X893Y633D02*
X900Y633D01*
X0Y632D02*
X7Y632D01*
X167Y632D02*
X172Y632D01*
X893Y632D02*
X900Y632D01*
X0Y631D02*
X7Y631D01*
X166Y631D02*
X171Y631D01*
X893Y631D02*
X900Y631D01*
X0Y630D02*
X7Y630D01*
X165Y630D02*
X170Y630D01*
X893Y630D02*
X900Y630D01*
X0Y629D02*
X7Y629D01*
X164Y629D02*
X169Y629D01*
X893Y629D02*
X900Y629D01*
X0Y628D02*
X7Y628D01*
X163Y628D02*
X168Y628D01*
X893Y628D02*
X900Y628D01*
X0Y627D02*
X7Y627D01*
X162Y627D02*
X167Y627D01*
X893Y627D02*
X900Y627D01*
X0Y626D02*
X7Y626D01*
X161Y626D02*
X166Y626D01*
X893Y626D02*
X900Y626D01*
X0Y625D02*
X7Y625D01*
X160Y625D02*
X166Y625D01*
X893Y625D02*
X900Y625D01*
X0Y624D02*
X7Y624D01*
X159Y624D02*
X165Y624D01*
X893Y624D02*
X900Y624D01*
X0Y623D02*
X7Y623D01*
X158Y623D02*
X164Y623D01*
X893Y623D02*
X900Y623D01*
X0Y622D02*
X7Y622D01*
X157Y622D02*
X163Y622D01*
X893Y622D02*
X900Y622D01*
X0Y621D02*
X7Y621D01*
X156Y621D02*
X162Y621D01*
X893Y621D02*
X900Y621D01*
X0Y620D02*
X7Y620D01*
X155Y620D02*
X161Y620D01*
X893Y620D02*
X900Y620D01*
X0Y619D02*
X7Y619D01*
X154Y619D02*
X160Y619D01*
X893Y619D02*
X900Y619D01*
X0Y618D02*
X7Y618D01*
X153Y618D02*
X159Y618D01*
X893Y618D02*
X900Y618D01*
X0Y617D02*
X7Y617D01*
X152Y617D02*
X158Y617D01*
X893Y617D02*
X900Y617D01*
X0Y616D02*
X7Y616D01*
X151Y616D02*
X157Y616D01*
X893Y616D02*
X900Y616D01*
X0Y615D02*
X7Y615D01*
X150Y615D02*
X156Y615D01*
X893Y615D02*
X900Y615D01*
X0Y614D02*
X7Y614D01*
X151Y614D02*
X155Y614D01*
X893Y614D02*
X900Y614D01*
X0Y613D02*
X7Y613D01*
X152Y613D02*
X154Y613D01*
X893Y613D02*
X900Y613D01*
X0Y612D02*
X7Y612D01*
X153Y612D02*
X153Y612D01*
X893Y612D02*
X900Y612D01*
X0Y611D02*
X7Y611D01*
X893Y611D02*
X900Y611D01*
X0Y610D02*
X7Y610D01*
X893Y610D02*
X900Y610D01*
X0Y609D02*
X7Y609D01*
X893Y609D02*
X900Y609D01*
X0Y608D02*
X7Y608D01*
X893Y608D02*
X900Y608D01*
X0Y607D02*
X7Y607D01*
X893Y607D02*
X900Y607D01*
X0Y606D02*
X7Y606D01*
X893Y606D02*
X900Y606D01*
X0Y605D02*
X7Y605D01*
X893Y605D02*
X900Y605D01*
X0Y604D02*
X7Y604D01*
X893Y604D02*
X900Y604D01*
X0Y603D02*
X7Y603D01*
X893Y603D02*
X900Y603D01*
X0Y602D02*
X7Y602D01*
X893Y602D02*
X900Y602D01*
X0Y601D02*
X7Y601D01*
X893Y601D02*
X900Y601D01*
X0Y600D02*
X7Y600D01*
X893Y600D02*
X900Y600D01*
X0Y599D02*
X7Y599D01*
X893Y599D02*
X900Y599D01*
X0Y598D02*
X7Y598D01*
X893Y598D02*
X900Y598D01*
X0Y597D02*
X7Y597D01*
X893Y597D02*
X900Y597D01*
X0Y596D02*
X7Y596D01*
X893Y596D02*
X900Y596D01*
X0Y595D02*
X7Y595D01*
X893Y595D02*
X900Y595D01*
X0Y594D02*
X7Y594D01*
X893Y594D02*
X900Y594D01*
X0Y593D02*
X7Y593D01*
X893Y593D02*
X900Y593D01*
X0Y592D02*
X7Y592D01*
X893Y592D02*
X900Y592D01*
X0Y591D02*
X7Y591D01*
X893Y591D02*
X900Y591D01*
X0Y590D02*
X7Y590D01*
X893Y590D02*
X900Y590D01*
X0Y589D02*
X7Y589D01*
X893Y589D02*
X900Y589D01*
X0Y588D02*
X7Y588D01*
X893Y588D02*
X900Y588D01*
X0Y587D02*
X7Y587D01*
X893Y587D02*
X900Y587D01*
X0Y586D02*
X7Y586D01*
X893Y586D02*
X900Y586D01*
X0Y585D02*
X7Y585D01*
X893Y585D02*
X900Y585D01*
X0Y584D02*
X7Y584D01*
X893Y584D02*
X900Y584D01*
X0Y583D02*
X7Y583D01*
X893Y583D02*
X900Y583D01*
X0Y582D02*
X7Y582D01*
X893Y582D02*
X900Y582D01*
X0Y581D02*
X7Y581D01*
X893Y581D02*
X900Y581D01*
X0Y580D02*
X7Y580D01*
X893Y580D02*
X900Y580D01*
X0Y579D02*
X7Y579D01*
X893Y579D02*
X900Y579D01*
X0Y578D02*
X7Y578D01*
X893Y578D02*
X900Y578D01*
X0Y577D02*
X7Y577D01*
X893Y577D02*
X900Y577D01*
X0Y576D02*
X7Y576D01*
X893Y576D02*
X900Y576D01*
X0Y575D02*
X7Y575D01*
X893Y575D02*
X900Y575D01*
X0Y574D02*
X7Y574D01*
X893Y574D02*
X900Y574D01*
X0Y573D02*
X7Y573D01*
X893Y573D02*
X900Y573D01*
X0Y572D02*
X7Y572D01*
X893Y572D02*
X900Y572D01*
X0Y571D02*
X7Y571D01*
X893Y571D02*
X900Y571D01*
X0Y570D02*
X7Y570D01*
X893Y570D02*
X900Y570D01*
X0Y569D02*
X7Y569D01*
X893Y569D02*
X900Y569D01*
X0Y568D02*
X7Y568D01*
X893Y568D02*
X900Y568D01*
X0Y567D02*
X7Y567D01*
X893Y567D02*
X900Y567D01*
X0Y566D02*
X7Y566D01*
X893Y566D02*
X900Y566D01*
X0Y565D02*
X7Y565D01*
X893Y565D02*
X900Y565D01*
X0Y564D02*
X7Y564D01*
X893Y564D02*
X900Y564D01*
X0Y563D02*
X7Y563D01*
X893Y563D02*
X900Y563D01*
X0Y562D02*
X7Y562D01*
X893Y562D02*
X900Y562D01*
X0Y561D02*
X7Y561D01*
X893Y561D02*
X900Y561D01*
X0Y560D02*
X7Y560D01*
X893Y560D02*
X900Y560D01*
X0Y559D02*
X7Y559D01*
X893Y559D02*
X900Y559D01*
X0Y558D02*
X7Y558D01*
X893Y558D02*
X900Y558D01*
X0Y557D02*
X7Y557D01*
X893Y557D02*
X900Y557D01*
X0Y556D02*
X7Y556D01*
X893Y556D02*
X900Y556D01*
X0Y555D02*
X7Y555D01*
X893Y555D02*
X900Y555D01*
X0Y554D02*
X7Y554D01*
X893Y554D02*
X900Y554D01*
X0Y553D02*
X7Y553D01*
X893Y553D02*
X900Y553D01*
X0Y552D02*
X7Y552D01*
X893Y552D02*
X900Y552D01*
X0Y551D02*
X7Y551D01*
X893Y551D02*
X900Y551D01*
X0Y550D02*
X7Y550D01*
X893Y550D02*
X900Y550D01*
X0Y549D02*
X7Y549D01*
X893Y549D02*
X900Y549D01*
X0Y548D02*
X7Y548D01*
X893Y548D02*
X900Y548D01*
X0Y547D02*
X7Y547D01*
X893Y547D02*
X900Y547D01*
X0Y546D02*
X7Y546D01*
X893Y546D02*
X900Y546D01*
X0Y545D02*
X7Y545D01*
X893Y545D02*
X900Y545D01*
X0Y544D02*
X7Y544D01*
X893Y544D02*
X900Y544D01*
X0Y543D02*
X7Y543D01*
X893Y543D02*
X900Y543D01*
X0Y542D02*
X7Y542D01*
X893Y542D02*
X900Y542D01*
X0Y541D02*
X7Y541D01*
X893Y541D02*
X900Y541D01*
X0Y540D02*
X7Y540D01*
X893Y540D02*
X900Y540D01*
X0Y539D02*
X7Y539D01*
X893Y539D02*
X900Y539D01*
X0Y538D02*
X7Y538D01*
X893Y538D02*
X900Y538D01*
X0Y537D02*
X7Y537D01*
X893Y537D02*
X900Y537D01*
X0Y536D02*
X7Y536D01*
X893Y536D02*
X900Y536D01*
X0Y535D02*
X7Y535D01*
X893Y535D02*
X900Y535D01*
X0Y534D02*
X7Y534D01*
X893Y534D02*
X900Y534D01*
X0Y533D02*
X7Y533D01*
X893Y533D02*
X900Y533D01*
X0Y532D02*
X7Y532D01*
X893Y532D02*
X900Y532D01*
X0Y531D02*
X7Y531D01*
X893Y531D02*
X900Y531D01*
X0Y530D02*
X7Y530D01*
X893Y530D02*
X900Y530D01*
X0Y529D02*
X7Y529D01*
X893Y529D02*
X900Y529D01*
X0Y528D02*
X7Y528D01*
X893Y528D02*
X900Y528D01*
X0Y527D02*
X7Y527D01*
X893Y527D02*
X900Y527D01*
X0Y526D02*
X7Y526D01*
X893Y526D02*
X900Y526D01*
X0Y525D02*
X7Y525D01*
X893Y525D02*
X900Y525D01*
X0Y524D02*
X7Y524D01*
X893Y524D02*
X900Y524D01*
X0Y523D02*
X7Y523D01*
X893Y523D02*
X900Y523D01*
X0Y522D02*
X7Y522D01*
X893Y522D02*
X900Y522D01*
X0Y521D02*
X7Y521D01*
X893Y521D02*
X900Y521D01*
X0Y520D02*
X7Y520D01*
X893Y520D02*
X900Y520D01*
X0Y519D02*
X7Y519D01*
X893Y519D02*
X900Y519D01*
X0Y518D02*
X7Y518D01*
X893Y518D02*
X900Y518D01*
X0Y517D02*
X7Y517D01*
X893Y517D02*
X900Y517D01*
X0Y516D02*
X7Y516D01*
X893Y516D02*
X900Y516D01*
X0Y515D02*
X7Y515D01*
X893Y515D02*
X900Y515D01*
X0Y514D02*
X7Y514D01*
X893Y514D02*
X900Y514D01*
X0Y513D02*
X7Y513D01*
X893Y513D02*
X900Y513D01*
X0Y512D02*
X7Y512D01*
X893Y512D02*
X900Y512D01*
X0Y511D02*
X7Y511D01*
X893Y511D02*
X900Y511D01*
X0Y510D02*
X7Y510D01*
X893Y510D02*
X900Y510D01*
X0Y509D02*
X7Y509D01*
X893Y509D02*
X900Y509D01*
X0Y508D02*
X7Y508D01*
X893Y508D02*
X900Y508D01*
X0Y507D02*
X7Y507D01*
X893Y507D02*
X900Y507D01*
X0Y506D02*
X7Y506D01*
X893Y506D02*
X900Y506D01*
X0Y505D02*
X7Y505D01*
X893Y505D02*
X900Y505D01*
X0Y504D02*
X7Y504D01*
X893Y504D02*
X900Y504D01*
X0Y503D02*
X7Y503D01*
X893Y503D02*
X900Y503D01*
X0Y502D02*
X7Y502D01*
X893Y502D02*
X900Y502D01*
X0Y501D02*
X7Y501D01*
X893Y501D02*
X900Y501D01*
X0Y500D02*
X7Y500D01*
X893Y500D02*
X900Y500D01*
X0Y499D02*
X7Y499D01*
X893Y499D02*
X900Y499D01*
X0Y498D02*
X7Y498D01*
X893Y498D02*
X900Y498D01*
X0Y497D02*
X7Y497D01*
X893Y497D02*
X900Y497D01*
X0Y496D02*
X7Y496D01*
X893Y496D02*
X900Y496D01*
X0Y495D02*
X7Y495D01*
X893Y495D02*
X900Y495D01*
X0Y494D02*
X7Y494D01*
X893Y494D02*
X900Y494D01*
X0Y493D02*
X7Y493D01*
X893Y493D02*
X900Y493D01*
X0Y492D02*
X7Y492D01*
X893Y492D02*
X900Y492D01*
X0Y491D02*
X7Y491D01*
X893Y491D02*
X900Y491D01*
X0Y490D02*
X7Y490D01*
X893Y490D02*
X900Y490D01*
X0Y489D02*
X7Y489D01*
X893Y489D02*
X900Y489D01*
X0Y488D02*
X7Y488D01*
X893Y488D02*
X900Y488D01*
X0Y487D02*
X7Y487D01*
X893Y487D02*
X900Y487D01*
X0Y486D02*
X7Y486D01*
X893Y486D02*
X900Y486D01*
X0Y485D02*
X7Y485D01*
X893Y485D02*
X900Y485D01*
X0Y484D02*
X7Y484D01*
X893Y484D02*
X900Y484D01*
X0Y483D02*
X7Y483D01*
X893Y483D02*
X900Y483D01*
X0Y482D02*
X7Y482D01*
X893Y482D02*
X900Y482D01*
X0Y481D02*
X7Y481D01*
X893Y481D02*
X900Y481D01*
X0Y480D02*
X7Y480D01*
X893Y480D02*
X900Y480D01*
X0Y479D02*
X7Y479D01*
X893Y479D02*
X900Y479D01*
X0Y478D02*
X7Y478D01*
X893Y478D02*
X900Y478D01*
X0Y477D02*
X7Y477D01*
X893Y477D02*
X900Y477D01*
X0Y476D02*
X7Y476D01*
X893Y476D02*
X900Y476D01*
X0Y475D02*
X7Y475D01*
X893Y475D02*
X900Y475D01*
X0Y474D02*
X7Y474D01*
X893Y474D02*
X900Y474D01*
X0Y473D02*
X7Y473D01*
X893Y473D02*
X900Y473D01*
X0Y472D02*
X7Y472D01*
X893Y472D02*
X900Y472D01*
X0Y471D02*
X7Y471D01*
X893Y471D02*
X900Y471D01*
X0Y470D02*
X7Y470D01*
X893Y470D02*
X900Y470D01*
X0Y469D02*
X7Y469D01*
X893Y469D02*
X900Y469D01*
X0Y468D02*
X7Y468D01*
X893Y468D02*
X900Y468D01*
X0Y467D02*
X7Y467D01*
X893Y467D02*
X900Y467D01*
X0Y466D02*
X7Y466D01*
X893Y466D02*
X900Y466D01*
X0Y465D02*
X7Y465D01*
X893Y465D02*
X900Y465D01*
X0Y464D02*
X7Y464D01*
X893Y464D02*
X900Y464D01*
X0Y463D02*
X7Y463D01*
X893Y463D02*
X900Y463D01*
X0Y462D02*
X7Y462D01*
X893Y462D02*
X900Y462D01*
X0Y461D02*
X7Y461D01*
X893Y461D02*
X900Y461D01*
X0Y460D02*
X7Y460D01*
X893Y460D02*
X900Y460D01*
X0Y459D02*
X7Y459D01*
X893Y459D02*
X900Y459D01*
X0Y458D02*
X7Y458D01*
X893Y458D02*
X900Y458D01*
X0Y457D02*
X7Y457D01*
X893Y457D02*
X900Y457D01*
X0Y456D02*
X7Y456D01*
X893Y456D02*
X900Y456D01*
X0Y455D02*
X7Y455D01*
X893Y455D02*
X900Y455D01*
X0Y454D02*
X7Y454D01*
X893Y454D02*
X900Y454D01*
X0Y453D02*
X7Y453D01*
X893Y453D02*
X900Y453D01*
X0Y452D02*
X7Y452D01*
X893Y452D02*
X900Y452D01*
X0Y451D02*
X7Y451D01*
X893Y451D02*
X900Y451D01*
X0Y450D02*
X7Y450D01*
X893Y450D02*
X900Y450D01*
X0Y449D02*
X7Y449D01*
X893Y449D02*
X900Y449D01*
X0Y448D02*
X7Y448D01*
X893Y448D02*
X900Y448D01*
X0Y447D02*
X7Y447D01*
X893Y447D02*
X900Y447D01*
X0Y446D02*
X7Y446D01*
X893Y446D02*
X900Y446D01*
X0Y445D02*
X7Y445D01*
X893Y445D02*
X900Y445D01*
X0Y444D02*
X7Y444D01*
X893Y444D02*
X900Y444D01*
X0Y443D02*
X7Y443D01*
X893Y443D02*
X900Y443D01*
X0Y442D02*
X7Y442D01*
X893Y442D02*
X900Y442D01*
X0Y441D02*
X7Y441D01*
X893Y441D02*
X900Y441D01*
X0Y440D02*
X7Y440D01*
X893Y440D02*
X900Y440D01*
X0Y439D02*
X7Y439D01*
X893Y439D02*
X900Y439D01*
X0Y438D02*
X7Y438D01*
X893Y438D02*
X900Y438D01*
X0Y437D02*
X7Y437D01*
X893Y437D02*
X900Y437D01*
X0Y436D02*
X7Y436D01*
X893Y436D02*
X900Y436D01*
X0Y435D02*
X7Y435D01*
X893Y435D02*
X900Y435D01*
X0Y434D02*
X7Y434D01*
X893Y434D02*
X900Y434D01*
X0Y433D02*
X7Y433D01*
X893Y433D02*
X900Y433D01*
X0Y432D02*
X7Y432D01*
X893Y432D02*
X900Y432D01*
X0Y431D02*
X7Y431D01*
X893Y431D02*
X900Y431D01*
X0Y430D02*
X7Y430D01*
X893Y430D02*
X900Y430D01*
X0Y429D02*
X7Y429D01*
X893Y429D02*
X900Y429D01*
X0Y428D02*
X7Y428D01*
X893Y428D02*
X900Y428D01*
X0Y427D02*
X7Y427D01*
X893Y427D02*
X900Y427D01*
X0Y426D02*
X7Y426D01*
X893Y426D02*
X900Y426D01*
X0Y425D02*
X7Y425D01*
X893Y425D02*
X900Y425D01*
X0Y424D02*
X7Y424D01*
X893Y424D02*
X900Y424D01*
X0Y423D02*
X7Y423D01*
X893Y423D02*
X900Y423D01*
X0Y422D02*
X7Y422D01*
X893Y422D02*
X900Y422D01*
X0Y421D02*
X7Y421D01*
X893Y421D02*
X900Y421D01*
X0Y420D02*
X7Y420D01*
X893Y420D02*
X900Y420D01*
X0Y419D02*
X7Y419D01*
X893Y419D02*
X900Y419D01*
X0Y418D02*
X7Y418D01*
X893Y418D02*
X900Y418D01*
X0Y417D02*
X7Y417D01*
X893Y417D02*
X900Y417D01*
X0Y416D02*
X7Y416D01*
X893Y416D02*
X900Y416D01*
X0Y415D02*
X7Y415D01*
X893Y415D02*
X900Y415D01*
X0Y414D02*
X7Y414D01*
X893Y414D02*
X900Y414D01*
X0Y413D02*
X7Y413D01*
X893Y413D02*
X900Y413D01*
X0Y412D02*
X7Y412D01*
X893Y412D02*
X900Y412D01*
X0Y411D02*
X7Y411D01*
X893Y411D02*
X900Y411D01*
X0Y410D02*
X7Y410D01*
X893Y410D02*
X900Y410D01*
X0Y409D02*
X7Y409D01*
X893Y409D02*
X900Y409D01*
X0Y408D02*
X7Y408D01*
X893Y408D02*
X900Y408D01*
X0Y407D02*
X7Y407D01*
X893Y407D02*
X900Y407D01*
X0Y406D02*
X7Y406D01*
X893Y406D02*
X900Y406D01*
X0Y405D02*
X7Y405D01*
X893Y405D02*
X900Y405D01*
X0Y404D02*
X7Y404D01*
X893Y404D02*
X900Y404D01*
X0Y403D02*
X7Y403D01*
X893Y403D02*
X900Y403D01*
X0Y402D02*
X7Y402D01*
X893Y402D02*
X900Y402D01*
X0Y401D02*
X7Y401D01*
X893Y401D02*
X900Y401D01*
X0Y400D02*
X7Y400D01*
X893Y400D02*
X900Y400D01*
X0Y399D02*
X7Y399D01*
X893Y399D02*
X900Y399D01*
X0Y398D02*
X7Y398D01*
X893Y398D02*
X900Y398D01*
X0Y397D02*
X7Y397D01*
X893Y397D02*
X900Y397D01*
X0Y396D02*
X7Y396D01*
X893Y396D02*
X900Y396D01*
X0Y395D02*
X7Y395D01*
X893Y395D02*
X900Y395D01*
X0Y394D02*
X7Y394D01*
X893Y394D02*
X900Y394D01*
X0Y393D02*
X7Y393D01*
X893Y393D02*
X900Y393D01*
X0Y392D02*
X7Y392D01*
X893Y392D02*
X900Y392D01*
X0Y391D02*
X7Y391D01*
X893Y391D02*
X900Y391D01*
X0Y390D02*
X7Y390D01*
X893Y390D02*
X900Y390D01*
X0Y389D02*
X7Y389D01*
X893Y389D02*
X900Y389D01*
X0Y388D02*
X7Y388D01*
X893Y388D02*
X900Y388D01*
X0Y387D02*
X7Y387D01*
X893Y387D02*
X900Y387D01*
X0Y386D02*
X7Y386D01*
X893Y386D02*
X900Y386D01*
X0Y385D02*
X7Y385D01*
X893Y385D02*
X900Y385D01*
X0Y384D02*
X7Y384D01*
X893Y384D02*
X900Y384D01*
X0Y383D02*
X7Y383D01*
X893Y383D02*
X900Y383D01*
X0Y382D02*
X7Y382D01*
X893Y382D02*
X900Y382D01*
X0Y381D02*
X7Y381D01*
X893Y381D02*
X900Y381D01*
X0Y380D02*
X7Y380D01*
X893Y380D02*
X900Y380D01*
X0Y379D02*
X7Y379D01*
X893Y379D02*
X900Y379D01*
X0Y378D02*
X7Y378D01*
X893Y378D02*
X900Y378D01*
X0Y377D02*
X7Y377D01*
X893Y377D02*
X900Y377D01*
X0Y376D02*
X7Y376D01*
X893Y376D02*
X900Y376D01*
X0Y375D02*
X7Y375D01*
X893Y375D02*
X900Y375D01*
X0Y374D02*
X7Y374D01*
X893Y374D02*
X900Y374D01*
X0Y373D02*
X7Y373D01*
X893Y373D02*
X900Y373D01*
X0Y372D02*
X7Y372D01*
X893Y372D02*
X900Y372D01*
X0Y371D02*
X7Y371D01*
X893Y371D02*
X900Y371D01*
X0Y370D02*
X7Y370D01*
X893Y370D02*
X900Y370D01*
X0Y369D02*
X7Y369D01*
X893Y369D02*
X900Y369D01*
X0Y368D02*
X7Y368D01*
X893Y368D02*
X900Y368D01*
X0Y367D02*
X7Y367D01*
X893Y367D02*
X900Y367D01*
X0Y366D02*
X7Y366D01*
X893Y366D02*
X900Y366D01*
X0Y365D02*
X7Y365D01*
X893Y365D02*
X900Y365D01*
X0Y364D02*
X7Y364D01*
X893Y364D02*
X900Y364D01*
X0Y363D02*
X7Y363D01*
X893Y363D02*
X900Y363D01*
X0Y362D02*
X7Y362D01*
X893Y362D02*
X900Y362D01*
X0Y361D02*
X7Y361D01*
X893Y361D02*
X900Y361D01*
X0Y360D02*
X7Y360D01*
X893Y360D02*
X900Y360D01*
X0Y359D02*
X7Y359D01*
X893Y359D02*
X900Y359D01*
X0Y358D02*
X7Y358D01*
X893Y358D02*
X900Y358D01*
X0Y357D02*
X7Y357D01*
X893Y357D02*
X900Y357D01*
X0Y356D02*
X7Y356D01*
X893Y356D02*
X900Y356D01*
X0Y355D02*
X7Y355D01*
X893Y355D02*
X900Y355D01*
X0Y354D02*
X7Y354D01*
X893Y354D02*
X900Y354D01*
X0Y353D02*
X7Y353D01*
X893Y353D02*
X900Y353D01*
X0Y352D02*
X7Y352D01*
X893Y352D02*
X900Y352D01*
X0Y351D02*
X7Y351D01*
X893Y351D02*
X900Y351D01*
X0Y350D02*
X7Y350D01*
X893Y350D02*
X900Y350D01*
X0Y349D02*
X7Y349D01*
X893Y349D02*
X900Y349D01*
X0Y348D02*
X7Y348D01*
X893Y348D02*
X900Y348D01*
X0Y347D02*
X7Y347D01*
X893Y347D02*
X900Y347D01*
X0Y346D02*
X7Y346D01*
X893Y346D02*
X900Y346D01*
X0Y345D02*
X7Y345D01*
X893Y345D02*
X900Y345D01*
X0Y344D02*
X7Y344D01*
X893Y344D02*
X900Y344D01*
X0Y343D02*
X7Y343D01*
X893Y343D02*
X900Y343D01*
X0Y342D02*
X7Y342D01*
X893Y342D02*
X900Y342D01*
X0Y341D02*
X7Y341D01*
X893Y341D02*
X900Y341D01*
X0Y340D02*
X7Y340D01*
X893Y340D02*
X900Y340D01*
X0Y339D02*
X7Y339D01*
X893Y339D02*
X900Y339D01*
X0Y338D02*
X7Y338D01*
X893Y338D02*
X900Y338D01*
X0Y337D02*
X7Y337D01*
X893Y337D02*
X900Y337D01*
X0Y336D02*
X7Y336D01*
X893Y336D02*
X900Y336D01*
X0Y335D02*
X7Y335D01*
X893Y335D02*
X900Y335D01*
X0Y334D02*
X7Y334D01*
X893Y334D02*
X900Y334D01*
X0Y333D02*
X7Y333D01*
X893Y333D02*
X900Y333D01*
X0Y332D02*
X7Y332D01*
X893Y332D02*
X900Y332D01*
X0Y331D02*
X7Y331D01*
X893Y331D02*
X900Y331D01*
X0Y330D02*
X7Y330D01*
X893Y330D02*
X900Y330D01*
X0Y329D02*
X7Y329D01*
X893Y329D02*
X900Y329D01*
X0Y328D02*
X7Y328D01*
X893Y328D02*
X900Y328D01*
X0Y327D02*
X7Y327D01*
X893Y327D02*
X900Y327D01*
X0Y326D02*
X7Y326D01*
X893Y326D02*
X900Y326D01*
X0Y325D02*
X7Y325D01*
X893Y325D02*
X900Y325D01*
X0Y324D02*
X7Y324D01*
X893Y324D02*
X900Y324D01*
X0Y323D02*
X7Y323D01*
X893Y323D02*
X900Y323D01*
X0Y322D02*
X7Y322D01*
X893Y322D02*
X900Y322D01*
X0Y321D02*
X7Y321D01*
X893Y321D02*
X900Y321D01*
X0Y320D02*
X7Y320D01*
X893Y320D02*
X900Y320D01*
X0Y319D02*
X7Y319D01*
X893Y319D02*
X900Y319D01*
X0Y318D02*
X7Y318D01*
X893Y318D02*
X900Y318D01*
X0Y317D02*
X7Y317D01*
X893Y317D02*
X900Y317D01*
X0Y316D02*
X7Y316D01*
X893Y316D02*
X900Y316D01*
X0Y315D02*
X7Y315D01*
X893Y315D02*
X900Y315D01*
X0Y314D02*
X7Y314D01*
X893Y314D02*
X900Y314D01*
X0Y313D02*
X7Y313D01*
X893Y313D02*
X900Y313D01*
X0Y312D02*
X7Y312D01*
X893Y312D02*
X900Y312D01*
X0Y311D02*
X7Y311D01*
X893Y311D02*
X900Y311D01*
X0Y310D02*
X7Y310D01*
X893Y310D02*
X900Y310D01*
X0Y309D02*
X7Y309D01*
X893Y309D02*
X900Y309D01*
X0Y308D02*
X7Y308D01*
X893Y308D02*
X900Y308D01*
X0Y307D02*
X7Y307D01*
X893Y307D02*
X900Y307D01*
X0Y306D02*
X7Y306D01*
X893Y306D02*
X900Y306D01*
X0Y305D02*
X7Y305D01*
X893Y305D02*
X900Y305D01*
X0Y304D02*
X7Y304D01*
X893Y304D02*
X900Y304D01*
X0Y303D02*
X7Y303D01*
X893Y303D02*
X900Y303D01*
X0Y302D02*
X7Y302D01*
X893Y302D02*
X900Y302D01*
X0Y301D02*
X7Y301D01*
X893Y301D02*
X900Y301D01*
X0Y300D02*
X7Y300D01*
X893Y300D02*
X900Y300D01*
X0Y299D02*
X7Y299D01*
X893Y299D02*
X900Y299D01*
X0Y298D02*
X7Y298D01*
X893Y298D02*
X900Y298D01*
X0Y297D02*
X7Y297D01*
X893Y297D02*
X900Y297D01*
X0Y296D02*
X7Y296D01*
X893Y296D02*
X900Y296D01*
X0Y295D02*
X7Y295D01*
X893Y295D02*
X900Y295D01*
X0Y294D02*
X7Y294D01*
X893Y294D02*
X900Y294D01*
X0Y293D02*
X7Y293D01*
X893Y293D02*
X900Y293D01*
X0Y292D02*
X7Y292D01*
X893Y292D02*
X900Y292D01*
X0Y291D02*
X7Y291D01*
X893Y291D02*
X900Y291D01*
X0Y290D02*
X7Y290D01*
X893Y290D02*
X900Y290D01*
X0Y289D02*
X7Y289D01*
X893Y289D02*
X900Y289D01*
X0Y288D02*
X7Y288D01*
X893Y288D02*
X900Y288D01*
X0Y287D02*
X7Y287D01*
X893Y287D02*
X900Y287D01*
X0Y286D02*
X7Y286D01*
X893Y286D02*
X900Y286D01*
X0Y285D02*
X7Y285D01*
X893Y285D02*
X900Y285D01*
X0Y284D02*
X7Y284D01*
X893Y284D02*
X900Y284D01*
X0Y283D02*
X7Y283D01*
X893Y283D02*
X900Y283D01*
X0Y282D02*
X7Y282D01*
X893Y282D02*
X900Y282D01*
X0Y281D02*
X7Y281D01*
X893Y281D02*
X900Y281D01*
X0Y280D02*
X7Y280D01*
X893Y280D02*
X900Y280D01*
X0Y279D02*
X7Y279D01*
X893Y279D02*
X900Y279D01*
X0Y278D02*
X7Y278D01*
X893Y278D02*
X900Y278D01*
X0Y277D02*
X7Y277D01*
X893Y277D02*
X900Y277D01*
X0Y276D02*
X7Y276D01*
X893Y276D02*
X900Y276D01*
X0Y275D02*
X7Y275D01*
X893Y275D02*
X900Y275D01*
X0Y274D02*
X7Y274D01*
X893Y274D02*
X900Y274D01*
X0Y273D02*
X7Y273D01*
X893Y273D02*
X900Y273D01*
X0Y272D02*
X7Y272D01*
X893Y272D02*
X900Y272D01*
X0Y271D02*
X7Y271D01*
X893Y271D02*
X900Y271D01*
X0Y270D02*
X7Y270D01*
X893Y270D02*
X900Y270D01*
X0Y269D02*
X7Y269D01*
X893Y269D02*
X900Y269D01*
X0Y268D02*
X7Y268D01*
X893Y268D02*
X900Y268D01*
X0Y267D02*
X7Y267D01*
X893Y267D02*
X900Y267D01*
X0Y266D02*
X7Y266D01*
X893Y266D02*
X900Y266D01*
X0Y265D02*
X7Y265D01*
X893Y265D02*
X900Y265D01*
X0Y264D02*
X7Y264D01*
X893Y264D02*
X900Y264D01*
X0Y263D02*
X7Y263D01*
X893Y263D02*
X900Y263D01*
X0Y262D02*
X7Y262D01*
X893Y262D02*
X900Y262D01*
X0Y261D02*
X7Y261D01*
X893Y261D02*
X900Y261D01*
X0Y260D02*
X7Y260D01*
X893Y260D02*
X900Y260D01*
X0Y259D02*
X7Y259D01*
X893Y259D02*
X900Y259D01*
X0Y258D02*
X7Y258D01*
X893Y258D02*
X900Y258D01*
X0Y257D02*
X7Y257D01*
X893Y257D02*
X900Y257D01*
X0Y256D02*
X7Y256D01*
X893Y256D02*
X900Y256D01*
X0Y255D02*
X7Y255D01*
X893Y255D02*
X900Y255D01*
X0Y254D02*
X7Y254D01*
X893Y254D02*
X900Y254D01*
X0Y253D02*
X7Y253D01*
X893Y253D02*
X900Y253D01*
X0Y252D02*
X7Y252D01*
X893Y252D02*
X900Y252D01*
X0Y251D02*
X7Y251D01*
X893Y251D02*
X900Y251D01*
X0Y250D02*
X7Y250D01*
X893Y250D02*
X900Y250D01*
X0Y249D02*
X7Y249D01*
X893Y249D02*
X900Y249D01*
X0Y248D02*
X7Y248D01*
X893Y248D02*
X900Y248D01*
X0Y247D02*
X7Y247D01*
X893Y247D02*
X900Y247D01*
X0Y246D02*
X7Y246D01*
X893Y246D02*
X900Y246D01*
X0Y245D02*
X7Y245D01*
X893Y245D02*
X900Y245D01*
X0Y244D02*
X7Y244D01*
X893Y244D02*
X900Y244D01*
X0Y243D02*
X7Y243D01*
X893Y243D02*
X900Y243D01*
X0Y242D02*
X7Y242D01*
X893Y242D02*
X900Y242D01*
X0Y241D02*
X7Y241D01*
X893Y241D02*
X900Y241D01*
X0Y240D02*
X7Y240D01*
X893Y240D02*
X900Y240D01*
X0Y239D02*
X7Y239D01*
X893Y239D02*
X900Y239D01*
X0Y238D02*
X7Y238D01*
X893Y238D02*
X900Y238D01*
X0Y237D02*
X7Y237D01*
X893Y237D02*
X900Y237D01*
X0Y236D02*
X7Y236D01*
X893Y236D02*
X900Y236D01*
X0Y235D02*
X7Y235D01*
X893Y235D02*
X900Y235D01*
X0Y234D02*
X7Y234D01*
X893Y234D02*
X900Y234D01*
X0Y233D02*
X7Y233D01*
X893Y233D02*
X900Y233D01*
X0Y232D02*
X7Y232D01*
X893Y232D02*
X900Y232D01*
X0Y231D02*
X7Y231D01*
X893Y231D02*
X900Y231D01*
X0Y230D02*
X7Y230D01*
X893Y230D02*
X900Y230D01*
X0Y229D02*
X7Y229D01*
X893Y229D02*
X900Y229D01*
X0Y228D02*
X7Y228D01*
X893Y228D02*
X900Y228D01*
X0Y227D02*
X7Y227D01*
X893Y227D02*
X900Y227D01*
X0Y226D02*
X7Y226D01*
X893Y226D02*
X900Y226D01*
X0Y225D02*
X7Y225D01*
X893Y225D02*
X900Y225D01*
X0Y224D02*
X7Y224D01*
X893Y224D02*
X900Y224D01*
X0Y223D02*
X7Y223D01*
X893Y223D02*
X900Y223D01*
X0Y222D02*
X7Y222D01*
X893Y222D02*
X900Y222D01*
X0Y221D02*
X7Y221D01*
X893Y221D02*
X900Y221D01*
X0Y220D02*
X7Y220D01*
X893Y220D02*
X900Y220D01*
X0Y219D02*
X7Y219D01*
X893Y219D02*
X900Y219D01*
X0Y218D02*
X7Y218D01*
X893Y218D02*
X900Y218D01*
X0Y217D02*
X7Y217D01*
X893Y217D02*
X900Y217D01*
X0Y216D02*
X7Y216D01*
X893Y216D02*
X900Y216D01*
X0Y215D02*
X7Y215D01*
X893Y215D02*
X900Y215D01*
X0Y214D02*
X7Y214D01*
X893Y214D02*
X900Y214D01*
X0Y213D02*
X7Y213D01*
X893Y213D02*
X900Y213D01*
X0Y212D02*
X7Y212D01*
X893Y212D02*
X900Y212D01*
X0Y211D02*
X7Y211D01*
X893Y211D02*
X900Y211D01*
X0Y210D02*
X7Y210D01*
X893Y210D02*
X900Y210D01*
X0Y209D02*
X7Y209D01*
X893Y209D02*
X900Y209D01*
X0Y208D02*
X7Y208D01*
X893Y208D02*
X900Y208D01*
X0Y207D02*
X7Y207D01*
X893Y207D02*
X900Y207D01*
X0Y206D02*
X7Y206D01*
X893Y206D02*
X900Y206D01*
X0Y205D02*
X7Y205D01*
X893Y205D02*
X900Y205D01*
X0Y204D02*
X7Y204D01*
X893Y204D02*
X900Y204D01*
X0Y203D02*
X7Y203D01*
X893Y203D02*
X900Y203D01*
X0Y202D02*
X7Y202D01*
X893Y202D02*
X900Y202D01*
X0Y201D02*
X7Y201D01*
X893Y201D02*
X900Y201D01*
X0Y200D02*
X7Y200D01*
X893Y200D02*
X900Y200D01*
X0Y199D02*
X7Y199D01*
X893Y199D02*
X900Y199D01*
X0Y198D02*
X7Y198D01*
X893Y198D02*
X900Y198D01*
X0Y197D02*
X7Y197D01*
X893Y197D02*
X900Y197D01*
X0Y196D02*
X7Y196D01*
X893Y196D02*
X900Y196D01*
X0Y195D02*
X7Y195D01*
X893Y195D02*
X900Y195D01*
X0Y194D02*
X7Y194D01*
X893Y194D02*
X900Y194D01*
X0Y193D02*
X7Y193D01*
X893Y193D02*
X900Y193D01*
X0Y192D02*
X7Y192D01*
X893Y192D02*
X900Y192D01*
X0Y191D02*
X7Y191D01*
X893Y191D02*
X900Y191D01*
X0Y190D02*
X7Y190D01*
X893Y190D02*
X900Y190D01*
X0Y189D02*
X7Y189D01*
X893Y189D02*
X900Y189D01*
X0Y188D02*
X7Y188D01*
X893Y188D02*
X900Y188D01*
X0Y187D02*
X7Y187D01*
X893Y187D02*
X900Y187D01*
X0Y186D02*
X7Y186D01*
X893Y186D02*
X900Y186D01*
X0Y185D02*
X7Y185D01*
X893Y185D02*
X900Y185D01*
X0Y184D02*
X7Y184D01*
X893Y184D02*
X900Y184D01*
X0Y183D02*
X7Y183D01*
X893Y183D02*
X900Y183D01*
X0Y182D02*
X7Y182D01*
X893Y182D02*
X900Y182D01*
X0Y181D02*
X7Y181D01*
X893Y181D02*
X900Y181D01*
X0Y180D02*
X7Y180D01*
X893Y180D02*
X900Y180D01*
X0Y179D02*
X7Y179D01*
X893Y179D02*
X900Y179D01*
X0Y178D02*
X7Y178D01*
X893Y178D02*
X900Y178D01*
X0Y177D02*
X7Y177D01*
X893Y177D02*
X900Y177D01*
X0Y176D02*
X7Y176D01*
X893Y176D02*
X900Y176D01*
X0Y175D02*
X7Y175D01*
X893Y175D02*
X900Y175D01*
X0Y174D02*
X7Y174D01*
X893Y174D02*
X900Y174D01*
X0Y173D02*
X7Y173D01*
X893Y173D02*
X900Y173D01*
X0Y172D02*
X7Y172D01*
X893Y172D02*
X900Y172D01*
X0Y171D02*
X7Y171D01*
X893Y171D02*
X900Y171D01*
X0Y170D02*
X7Y170D01*
X893Y170D02*
X900Y170D01*
X0Y169D02*
X7Y169D01*
X893Y169D02*
X900Y169D01*
X0Y168D02*
X7Y168D01*
X893Y168D02*
X900Y168D01*
X0Y167D02*
X7Y167D01*
X893Y167D02*
X900Y167D01*
X0Y166D02*
X7Y166D01*
X893Y166D02*
X900Y166D01*
X0Y165D02*
X7Y165D01*
X893Y165D02*
X900Y165D01*
X0Y164D02*
X7Y164D01*
X893Y164D02*
X900Y164D01*
X0Y163D02*
X7Y163D01*
X893Y163D02*
X900Y163D01*
X0Y162D02*
X7Y162D01*
X893Y162D02*
X900Y162D01*
X0Y161D02*
X7Y161D01*
X893Y161D02*
X900Y161D01*
X0Y160D02*
X7Y160D01*
X893Y160D02*
X900Y160D01*
X0Y159D02*
X7Y159D01*
X893Y159D02*
X900Y159D01*
X0Y158D02*
X7Y158D01*
X893Y158D02*
X900Y158D01*
X0Y157D02*
X7Y157D01*
X893Y157D02*
X900Y157D01*
X0Y156D02*
X7Y156D01*
X893Y156D02*
X900Y156D01*
X0Y155D02*
X7Y155D01*
X893Y155D02*
X900Y155D01*
X0Y154D02*
X7Y154D01*
X893Y154D02*
X900Y154D01*
X0Y153D02*
X7Y153D01*
X893Y153D02*
X900Y153D01*
X0Y152D02*
X7Y152D01*
X893Y152D02*
X900Y152D01*
X0Y151D02*
X7Y151D01*
X893Y151D02*
X900Y151D01*
X0Y150D02*
X7Y150D01*
X893Y150D02*
X900Y150D01*
X0Y149D02*
X7Y149D01*
X893Y149D02*
X900Y149D01*
X0Y148D02*
X7Y148D01*
X893Y148D02*
X900Y148D01*
X0Y147D02*
X7Y147D01*
X893Y147D02*
X900Y147D01*
X0Y146D02*
X7Y146D01*
X893Y146D02*
X900Y146D01*
X0Y145D02*
X7Y145D01*
X893Y145D02*
X900Y145D01*
X0Y144D02*
X7Y144D01*
X893Y144D02*
X900Y144D01*
X0Y143D02*
X7Y143D01*
X893Y143D02*
X900Y143D01*
X0Y142D02*
X7Y142D01*
X893Y142D02*
X900Y142D01*
X0Y141D02*
X7Y141D01*
X893Y141D02*
X900Y141D01*
X0Y140D02*
X7Y140D01*
X893Y140D02*
X900Y140D01*
X0Y139D02*
X7Y139D01*
X893Y139D02*
X900Y139D01*
X0Y138D02*
X7Y138D01*
X893Y138D02*
X900Y138D01*
X0Y137D02*
X7Y137D01*
X893Y137D02*
X900Y137D01*
X0Y136D02*
X7Y136D01*
X893Y136D02*
X900Y136D01*
X0Y135D02*
X7Y135D01*
X893Y135D02*
X900Y135D01*
X0Y134D02*
X7Y134D01*
X893Y134D02*
X900Y134D01*
X0Y133D02*
X7Y133D01*
X893Y133D02*
X900Y133D01*
X0Y132D02*
X7Y132D01*
X893Y132D02*
X900Y132D01*
X0Y131D02*
X7Y131D01*
X893Y131D02*
X900Y131D01*
X0Y130D02*
X7Y130D01*
X893Y130D02*
X900Y130D01*
X0Y129D02*
X7Y129D01*
X893Y129D02*
X900Y129D01*
X0Y128D02*
X7Y128D01*
X893Y128D02*
X900Y128D01*
X0Y127D02*
X7Y127D01*
X893Y127D02*
X900Y127D01*
X0Y126D02*
X7Y126D01*
X893Y126D02*
X900Y126D01*
X0Y125D02*
X7Y125D01*
X893Y125D02*
X900Y125D01*
X0Y124D02*
X7Y124D01*
X893Y124D02*
X900Y124D01*
X0Y123D02*
X7Y123D01*
X893Y123D02*
X900Y123D01*
X0Y122D02*
X7Y122D01*
X893Y122D02*
X900Y122D01*
X0Y121D02*
X7Y121D01*
X893Y121D02*
X900Y121D01*
X0Y120D02*
X7Y120D01*
X893Y120D02*
X900Y120D01*
X0Y119D02*
X7Y119D01*
X893Y119D02*
X900Y119D01*
X0Y118D02*
X7Y118D01*
X893Y118D02*
X900Y118D01*
X0Y117D02*
X7Y117D01*
X893Y117D02*
X900Y117D01*
X0Y116D02*
X7Y116D01*
X893Y116D02*
X900Y116D01*
X0Y115D02*
X7Y115D01*
X893Y115D02*
X900Y115D01*
X0Y114D02*
X7Y114D01*
X893Y114D02*
X900Y114D01*
X0Y113D02*
X7Y113D01*
X893Y113D02*
X900Y113D01*
X0Y112D02*
X7Y112D01*
X893Y112D02*
X900Y112D01*
X0Y111D02*
X7Y111D01*
X893Y111D02*
X900Y111D01*
X0Y110D02*
X7Y110D01*
X893Y110D02*
X900Y110D01*
X0Y109D02*
X7Y109D01*
X893Y109D02*
X900Y109D01*
X0Y108D02*
X7Y108D01*
X893Y108D02*
X900Y108D01*
X0Y107D02*
X7Y107D01*
X893Y107D02*
X900Y107D01*
X0Y106D02*
X7Y106D01*
X893Y106D02*
X900Y106D01*
X0Y105D02*
X7Y105D01*
X893Y105D02*
X900Y105D01*
X0Y104D02*
X7Y104D01*
X893Y104D02*
X900Y104D01*
X0Y103D02*
X7Y103D01*
X893Y103D02*
X900Y103D01*
X0Y102D02*
X7Y102D01*
X893Y102D02*
X900Y102D01*
X0Y101D02*
X7Y101D01*
X893Y101D02*
X900Y101D01*
X0Y100D02*
X7Y100D01*
X893Y100D02*
X900Y100D01*
X0Y99D02*
X7Y99D01*
X893Y99D02*
X900Y99D01*
X0Y98D02*
X7Y98D01*
X893Y98D02*
X900Y98D01*
X0Y97D02*
X7Y97D01*
X893Y97D02*
X900Y97D01*
X0Y96D02*
X7Y96D01*
X893Y96D02*
X900Y96D01*
X0Y95D02*
X7Y95D01*
X893Y95D02*
X900Y95D01*
X0Y94D02*
X7Y94D01*
X893Y94D02*
X900Y94D01*
X0Y93D02*
X7Y93D01*
X893Y93D02*
X900Y93D01*
X0Y92D02*
X7Y92D01*
X893Y92D02*
X900Y92D01*
X0Y91D02*
X7Y91D01*
X893Y91D02*
X900Y91D01*
X0Y90D02*
X7Y90D01*
X893Y90D02*
X900Y90D01*
X0Y89D02*
X7Y89D01*
X893Y89D02*
X900Y89D01*
X0Y88D02*
X7Y88D01*
X893Y88D02*
X900Y88D01*
X0Y87D02*
X7Y87D01*
X893Y87D02*
X900Y87D01*
X0Y86D02*
X7Y86D01*
X893Y86D02*
X900Y86D01*
X0Y85D02*
X7Y85D01*
X893Y85D02*
X900Y85D01*
X0Y84D02*
X7Y84D01*
X893Y84D02*
X900Y84D01*
X0Y83D02*
X7Y83D01*
X893Y83D02*
X900Y83D01*
X0Y82D02*
X7Y82D01*
X893Y82D02*
X900Y82D01*
X0Y81D02*
X7Y81D01*
X893Y81D02*
X900Y81D01*
X0Y80D02*
X7Y80D01*
X893Y80D02*
X900Y80D01*
X0Y79D02*
X7Y79D01*
X893Y79D02*
X900Y79D01*
X0Y78D02*
X7Y78D01*
X893Y78D02*
X900Y78D01*
X0Y77D02*
X7Y77D01*
X893Y77D02*
X900Y77D01*
X0Y76D02*
X7Y76D01*
X893Y76D02*
X900Y76D01*
X0Y75D02*
X7Y75D01*
X893Y75D02*
X900Y75D01*
X0Y74D02*
X7Y74D01*
X893Y74D02*
X900Y74D01*
X0Y73D02*
X7Y73D01*
X893Y73D02*
X900Y73D01*
X0Y72D02*
X7Y72D01*
X893Y72D02*
X900Y72D01*
X0Y71D02*
X7Y71D01*
X893Y71D02*
X900Y71D01*
X0Y70D02*
X7Y70D01*
X893Y70D02*
X900Y70D01*
X0Y69D02*
X7Y69D01*
X893Y69D02*
X900Y69D01*
X0Y68D02*
X7Y68D01*
X893Y68D02*
X900Y68D01*
X0Y67D02*
X7Y67D01*
X893Y67D02*
X900Y67D01*
X0Y66D02*
X7Y66D01*
X893Y66D02*
X900Y66D01*
X0Y65D02*
X7Y65D01*
X893Y65D02*
X900Y65D01*
X0Y64D02*
X7Y64D01*
X893Y64D02*
X900Y64D01*
X0Y63D02*
X7Y63D01*
X893Y63D02*
X900Y63D01*
X0Y62D02*
X7Y62D01*
X893Y62D02*
X900Y62D01*
X0Y61D02*
X7Y61D01*
X893Y61D02*
X900Y61D01*
X0Y60D02*
X7Y60D01*
X893Y60D02*
X900Y60D01*
X0Y59D02*
X7Y59D01*
X893Y59D02*
X900Y59D01*
X0Y58D02*
X7Y58D01*
X893Y58D02*
X900Y58D01*
X0Y57D02*
X7Y57D01*
X893Y57D02*
X900Y57D01*
X0Y56D02*
X7Y56D01*
X893Y56D02*
X900Y56D01*
X0Y55D02*
X7Y55D01*
X893Y55D02*
X900Y55D01*
X0Y54D02*
X7Y54D01*
X893Y54D02*
X900Y54D01*
X0Y53D02*
X7Y53D01*
X893Y53D02*
X900Y53D01*
X0Y52D02*
X7Y52D01*
X893Y52D02*
X900Y52D01*
X0Y51D02*
X7Y51D01*
X893Y51D02*
X900Y51D01*
X0Y50D02*
X7Y50D01*
X893Y50D02*
X900Y50D01*
X0Y49D02*
X7Y49D01*
X893Y49D02*
X900Y49D01*
X0Y48D02*
X7Y48D01*
X893Y48D02*
X900Y48D01*
X0Y47D02*
X7Y47D01*
X893Y47D02*
X900Y47D01*
X0Y46D02*
X7Y46D01*
X893Y46D02*
X900Y46D01*
X0Y45D02*
X7Y45D01*
X893Y45D02*
X900Y45D01*
X0Y44D02*
X7Y44D01*
X893Y44D02*
X900Y44D01*
X0Y43D02*
X7Y43D01*
X893Y43D02*
X900Y43D01*
X0Y42D02*
X7Y42D01*
X893Y42D02*
X900Y42D01*
X0Y41D02*
X7Y41D01*
X893Y41D02*
X900Y41D01*
X0Y40D02*
X7Y40D01*
X893Y40D02*
X900Y40D01*
X0Y39D02*
X7Y39D01*
X893Y39D02*
X900Y39D01*
X0Y38D02*
X7Y38D01*
X893Y38D02*
X900Y38D01*
X0Y37D02*
X7Y37D01*
X893Y37D02*
X900Y37D01*
X0Y36D02*
X7Y36D01*
X893Y36D02*
X900Y36D01*
X0Y35D02*
X7Y35D01*
X893Y35D02*
X900Y35D01*
X0Y34D02*
X7Y34D01*
X893Y34D02*
X900Y34D01*
X0Y33D02*
X7Y33D01*
X893Y33D02*
X900Y33D01*
X0Y32D02*
X7Y32D01*
X893Y32D02*
X900Y32D01*
X0Y31D02*
X7Y31D01*
X893Y31D02*
X900Y31D01*
X0Y30D02*
X7Y30D01*
X893Y30D02*
X900Y30D01*
X0Y29D02*
X7Y29D01*
X893Y29D02*
X900Y29D01*
X0Y28D02*
X7Y28D01*
X893Y28D02*
X900Y28D01*
X0Y27D02*
X7Y27D01*
X893Y27D02*
X900Y27D01*
X0Y26D02*
X7Y26D01*
X893Y26D02*
X900Y26D01*
X0Y25D02*
X7Y25D01*
X893Y25D02*
X900Y25D01*
X0Y24D02*
X7Y24D01*
X893Y24D02*
X900Y24D01*
X0Y23D02*
X7Y23D01*
X893Y23D02*
X900Y23D01*
X0Y22D02*
X7Y22D01*
X893Y22D02*
X900Y22D01*
X0Y21D02*
X7Y21D01*
X893Y21D02*
X900Y21D01*
X0Y20D02*
X7Y20D01*
X893Y20D02*
X900Y20D01*
X0Y19D02*
X7Y19D01*
X893Y19D02*
X900Y19D01*
X0Y18D02*
X7Y18D01*
X893Y18D02*
X900Y18D01*
X0Y17D02*
X7Y17D01*
X893Y17D02*
X900Y17D01*
X0Y16D02*
X7Y16D01*
X893Y16D02*
X900Y16D01*
X0Y15D02*
X7Y15D01*
X893Y15D02*
X900Y15D01*
X0Y14D02*
X7Y14D01*
X893Y14D02*
X900Y14D01*
X0Y13D02*
X7Y13D01*
X893Y13D02*
X900Y13D01*
X0Y12D02*
X7Y12D01*
X893Y12D02*
X900Y12D01*
X0Y11D02*
X7Y11D01*
X893Y11D02*
X900Y11D01*
X0Y10D02*
X7Y10D01*
X893Y10D02*
X900Y10D01*
X0Y9D02*
X900Y9D01*
X0Y8D02*
X900Y8D01*
X0Y7D02*
X900Y7D01*
X0Y6D02*
X900Y6D01*
X0Y5D02*
X900Y5D01*
X0Y4D02*
X900Y4D01*
X0Y3D02*
X900Y3D01*
X0Y2D02*
X900Y2D01*
D02*
G04 End of Silk0*
M02*