G04 MADE WITH FRITZING*
G04 WWW.FRITZING.ORG*
G04 DOUBLE SIDED*
G04 HOLES PLATED*
G04 CONTOUR ON CENTER OF CONTOUR VECTOR*
%ASAXBY*%
%FSLAX23Y23*%
%MOIN*%
%OFA0B0*%
%SFA1.0B1.0*%
%ADD10C,0.078000*%
%ADD11C,0.078740*%
%ADD12C,0.024000*%
%ADD13R,0.001000X0.001000*%
%LNCOPPER1*%
G90*
G70*
G54D10*
X301Y297D03*
X401Y297D03*
X501Y297D03*
X601Y297D03*
G54D11*
X601Y447D03*
X501Y448D03*
X401Y448D03*
X301Y448D03*
G54D10*
X201Y597D03*
X301Y597D03*
X401Y597D03*
X501Y597D03*
X601Y597D03*
X701Y597D03*
X201Y597D03*
X301Y597D03*
X401Y597D03*
X501Y597D03*
X601Y597D03*
X701Y597D03*
G54D12*
X223Y618D02*
X302Y697D01*
D02*
X302Y697D02*
X601Y697D01*
D02*
X601Y697D02*
X680Y618D01*
D02*
X685Y572D02*
X619Y473D01*
D02*
X585Y572D02*
X519Y473D01*
D02*
X485Y572D02*
X419Y473D01*
D02*
X385Y572D02*
X319Y473D01*
G54D13*
X178Y352D02*
X180Y352D01*
X200Y352D02*
X215Y352D01*
X177Y351D02*
X181Y351D01*
X199Y351D02*
X216Y351D01*
X177Y350D02*
X182Y350D01*
X199Y350D02*
X216Y350D01*
X177Y349D02*
X182Y349D01*
X199Y349D02*
X216Y349D01*
X177Y348D02*
X182Y348D01*
X199Y348D02*
X216Y348D01*
X177Y347D02*
X182Y347D01*
X200Y347D02*
X216Y347D01*
X177Y346D02*
X182Y346D01*
X211Y346D02*
X216Y346D01*
X177Y345D02*
X182Y345D01*
X211Y345D02*
X216Y345D01*
X177Y344D02*
X182Y344D01*
X211Y344D02*
X216Y344D01*
X177Y343D02*
X182Y343D01*
X211Y343D02*
X216Y343D01*
X177Y342D02*
X182Y342D01*
X211Y342D02*
X216Y342D01*
X177Y341D02*
X182Y341D01*
X211Y341D02*
X216Y341D01*
X177Y340D02*
X182Y340D01*
X211Y340D02*
X216Y340D01*
X177Y339D02*
X182Y339D01*
X211Y339D02*
X216Y339D01*
X177Y338D02*
X182Y338D01*
X211Y338D02*
X216Y338D01*
X177Y337D02*
X182Y337D01*
X211Y337D02*
X216Y337D01*
X177Y336D02*
X182Y336D01*
X211Y336D02*
X216Y336D01*
X177Y335D02*
X182Y335D01*
X211Y335D02*
X216Y335D01*
X177Y334D02*
X182Y334D01*
X211Y334D02*
X216Y334D01*
X177Y333D02*
X182Y333D01*
X211Y333D02*
X216Y333D01*
X177Y332D02*
X182Y332D01*
X211Y332D02*
X216Y332D01*
X177Y331D02*
X182Y331D01*
X211Y331D02*
X216Y331D01*
X177Y330D02*
X182Y330D01*
X211Y330D02*
X216Y330D01*
X177Y329D02*
X182Y329D01*
X211Y329D02*
X216Y329D01*
X177Y328D02*
X182Y328D01*
X211Y328D02*
X216Y328D01*
X161Y327D02*
X163Y327D01*
X177Y327D02*
X182Y327D01*
X211Y327D02*
X216Y327D01*
X224Y327D02*
X226Y327D01*
X160Y326D02*
X164Y326D01*
X177Y326D02*
X182Y326D01*
X211Y326D02*
X216Y326D01*
X223Y326D02*
X227Y326D01*
X159Y325D02*
X164Y325D01*
X177Y325D02*
X182Y325D01*
X211Y325D02*
X216Y325D01*
X222Y325D02*
X227Y325D01*
X159Y324D02*
X164Y324D01*
X177Y324D02*
X182Y324D01*
X211Y324D02*
X216Y324D01*
X222Y324D02*
X227Y324D01*
X159Y323D02*
X164Y323D01*
X177Y323D02*
X182Y323D01*
X211Y323D02*
X216Y323D01*
X222Y323D02*
X227Y323D01*
X159Y322D02*
X164Y322D01*
X177Y322D02*
X182Y322D01*
X211Y322D02*
X216Y322D01*
X222Y322D02*
X227Y322D01*
X159Y321D02*
X164Y321D01*
X177Y321D02*
X182Y321D01*
X211Y321D02*
X216Y321D01*
X222Y321D02*
X227Y321D01*
X159Y320D02*
X164Y320D01*
X177Y320D02*
X182Y320D01*
X211Y320D02*
X216Y320D01*
X222Y320D02*
X227Y320D01*
X159Y319D02*
X164Y319D01*
X177Y319D02*
X182Y319D01*
X211Y319D02*
X216Y319D01*
X222Y319D02*
X227Y319D01*
X159Y318D02*
X164Y318D01*
X177Y318D02*
X182Y318D01*
X211Y318D02*
X216Y318D01*
X222Y318D02*
X227Y318D01*
X159Y317D02*
X164Y317D01*
X177Y317D02*
X182Y317D01*
X211Y317D02*
X216Y317D01*
X222Y317D02*
X227Y317D01*
X159Y316D02*
X164Y316D01*
X177Y316D02*
X182Y316D01*
X211Y316D02*
X216Y316D01*
X222Y316D02*
X227Y316D01*
X159Y315D02*
X164Y315D01*
X177Y315D02*
X182Y315D01*
X211Y315D02*
X216Y315D01*
X222Y315D02*
X227Y315D01*
X159Y314D02*
X165Y314D01*
X176Y314D02*
X182Y314D01*
X211Y314D02*
X216Y314D01*
X222Y314D02*
X227Y314D01*
X160Y313D02*
X165Y313D01*
X176Y313D02*
X181Y313D01*
X211Y313D02*
X216Y313D01*
X222Y313D02*
X227Y313D01*
X160Y312D02*
X181Y312D01*
X201Y312D02*
X227Y312D01*
X160Y311D02*
X181Y311D01*
X199Y311D02*
X227Y311D01*
X161Y310D02*
X180Y310D01*
X199Y310D02*
X227Y310D01*
X162Y309D02*
X179Y309D01*
X199Y309D02*
X227Y309D01*
X163Y308D02*
X178Y308D01*
X199Y308D02*
X227Y308D01*
X165Y307D02*
X176Y307D01*
X200Y307D02*
X226Y307D01*
X268Y225D02*
X281Y225D01*
X295Y225D02*
X305Y225D01*
X331Y225D02*
X333Y225D01*
X371Y225D02*
X384Y225D01*
X404Y225D02*
X414Y225D01*
X426Y225D02*
X427Y225D01*
X560Y225D02*
X562Y225D01*
X576Y225D02*
X578Y225D01*
X595Y225D02*
X606Y225D01*
X624Y225D02*
X634Y225D01*
X267Y224D02*
X283Y224D01*
X294Y224D02*
X306Y224D01*
X330Y224D02*
X333Y224D01*
X369Y224D02*
X385Y224D01*
X403Y224D02*
X415Y224D01*
X425Y224D02*
X428Y224D01*
X472Y224D02*
X482Y224D01*
X492Y224D02*
X497Y224D01*
X508Y224D02*
X510Y224D01*
X521Y224D02*
X532Y224D01*
X560Y224D02*
X563Y224D01*
X575Y224D02*
X578Y224D01*
X594Y224D02*
X607Y224D01*
X622Y224D02*
X635Y224D01*
X266Y223D02*
X284Y223D01*
X294Y223D02*
X307Y223D01*
X330Y223D02*
X333Y223D01*
X369Y223D02*
X386Y223D01*
X402Y223D02*
X415Y223D01*
X425Y223D02*
X428Y223D01*
X471Y223D02*
X482Y223D01*
X492Y223D02*
X497Y223D01*
X508Y223D02*
X510Y223D01*
X520Y223D02*
X533Y223D01*
X560Y223D02*
X563Y223D01*
X575Y223D02*
X578Y223D01*
X593Y223D02*
X606Y223D01*
X622Y223D02*
X635Y223D01*
X266Y222D02*
X284Y222D01*
X295Y222D02*
X308Y222D01*
X330Y222D02*
X334Y222D01*
X368Y222D02*
X386Y222D01*
X401Y222D02*
X414Y222D01*
X425Y222D02*
X428Y222D01*
X470Y222D02*
X482Y222D01*
X492Y222D02*
X497Y222D01*
X508Y222D02*
X511Y222D01*
X521Y222D02*
X534Y222D01*
X560Y222D02*
X563Y222D01*
X575Y222D02*
X578Y222D01*
X593Y222D02*
X605Y222D01*
X621Y222D02*
X634Y222D01*
X266Y221D02*
X269Y221D01*
X281Y221D02*
X284Y221D01*
X298Y221D02*
X301Y221D01*
X305Y221D02*
X308Y221D01*
X329Y221D02*
X334Y221D01*
X368Y221D02*
X371Y221D01*
X383Y221D02*
X387Y221D01*
X401Y221D02*
X405Y221D01*
X425Y221D02*
X428Y221D01*
X469Y221D02*
X480Y221D01*
X492Y221D02*
X498Y221D01*
X508Y221D02*
X511Y221D01*
X522Y221D02*
X534Y221D01*
X560Y221D02*
X563Y221D01*
X575Y221D02*
X578Y221D01*
X592Y221D02*
X596Y221D01*
X620Y221D02*
X624Y221D01*
X266Y220D02*
X270Y220D01*
X281Y220D02*
X284Y220D01*
X298Y220D02*
X301Y220D01*
X305Y220D02*
X309Y220D01*
X329Y220D02*
X334Y220D01*
X368Y220D02*
X372Y220D01*
X384Y220D02*
X387Y220D01*
X400Y220D02*
X404Y220D01*
X425Y220D02*
X428Y220D01*
X469Y220D02*
X473Y220D01*
X492Y220D02*
X498Y220D01*
X508Y220D02*
X511Y220D01*
X524Y220D02*
X527Y220D01*
X531Y220D02*
X535Y220D01*
X560Y220D02*
X563Y220D01*
X575Y220D02*
X578Y220D01*
X592Y220D02*
X595Y220D01*
X620Y220D02*
X623Y220D01*
X266Y219D02*
X270Y219D01*
X282Y219D02*
X284Y219D01*
X298Y219D02*
X301Y219D01*
X306Y219D02*
X309Y219D01*
X329Y219D02*
X335Y219D01*
X369Y219D02*
X373Y219D01*
X384Y219D02*
X386Y219D01*
X400Y219D02*
X403Y219D01*
X425Y219D02*
X428Y219D01*
X468Y219D02*
X472Y219D01*
X492Y219D02*
X499Y219D01*
X508Y219D02*
X511Y219D01*
X524Y219D02*
X527Y219D01*
X532Y219D02*
X535Y219D01*
X560Y219D02*
X563Y219D01*
X575Y219D02*
X578Y219D01*
X591Y219D02*
X595Y219D01*
X619Y219D02*
X623Y219D01*
X267Y218D02*
X271Y218D01*
X298Y218D02*
X301Y218D01*
X306Y218D02*
X310Y218D01*
X328Y218D02*
X335Y218D01*
X369Y218D02*
X373Y218D01*
X399Y218D02*
X403Y218D01*
X425Y218D02*
X428Y218D01*
X467Y218D02*
X471Y218D01*
X492Y218D02*
X499Y218D01*
X508Y218D02*
X511Y218D01*
X524Y218D02*
X527Y218D01*
X532Y218D02*
X536Y218D01*
X560Y218D02*
X563Y218D01*
X575Y218D02*
X578Y218D01*
X591Y218D02*
X594Y218D01*
X619Y218D02*
X622Y218D01*
X268Y217D02*
X272Y217D01*
X298Y217D02*
X301Y217D01*
X307Y217D02*
X310Y217D01*
X328Y217D02*
X335Y217D01*
X370Y217D02*
X374Y217D01*
X399Y217D02*
X402Y217D01*
X425Y217D02*
X428Y217D01*
X466Y217D02*
X470Y217D01*
X492Y217D02*
X500Y217D01*
X508Y217D02*
X511Y217D01*
X524Y217D02*
X527Y217D01*
X533Y217D02*
X536Y217D01*
X560Y217D02*
X563Y217D01*
X575Y217D02*
X578Y217D01*
X590Y217D02*
X594Y217D01*
X618Y217D02*
X622Y217D01*
X269Y216D02*
X273Y216D01*
X298Y216D02*
X301Y216D01*
X307Y216D02*
X311Y216D01*
X328Y216D02*
X335Y216D01*
X371Y216D02*
X375Y216D01*
X398Y216D02*
X402Y216D01*
X425Y216D02*
X428Y216D01*
X465Y216D02*
X469Y216D01*
X492Y216D02*
X495Y216D01*
X497Y216D02*
X500Y216D01*
X508Y216D02*
X511Y216D01*
X524Y216D02*
X527Y216D01*
X533Y216D02*
X537Y216D01*
X560Y216D02*
X563Y216D01*
X575Y216D02*
X578Y216D01*
X590Y216D02*
X593Y216D01*
X618Y216D02*
X621Y216D01*
X269Y215D02*
X273Y215D01*
X298Y215D02*
X301Y215D01*
X308Y215D02*
X311Y215D01*
X328Y215D02*
X331Y215D01*
X333Y215D02*
X336Y215D01*
X372Y215D02*
X376Y215D01*
X398Y215D02*
X401Y215D01*
X425Y215D02*
X428Y215D01*
X465Y215D02*
X469Y215D01*
X492Y215D02*
X495Y215D01*
X497Y215D02*
X501Y215D01*
X508Y215D02*
X511Y215D01*
X524Y215D02*
X527Y215D01*
X534Y215D02*
X537Y215D01*
X560Y215D02*
X564Y215D01*
X574Y215D02*
X578Y215D01*
X589Y215D02*
X593Y215D01*
X617Y215D02*
X621Y215D01*
X270Y214D02*
X274Y214D01*
X298Y214D02*
X301Y214D01*
X308Y214D02*
X312Y214D01*
X327Y214D02*
X330Y214D01*
X333Y214D02*
X336Y214D01*
X372Y214D02*
X377Y214D01*
X397Y214D02*
X401Y214D01*
X425Y214D02*
X428Y214D01*
X464Y214D02*
X468Y214D01*
X492Y214D02*
X495Y214D01*
X498Y214D02*
X501Y214D01*
X508Y214D02*
X511Y214D01*
X524Y214D02*
X527Y214D01*
X534Y214D02*
X538Y214D01*
X561Y214D02*
X564Y214D01*
X574Y214D02*
X577Y214D01*
X589Y214D02*
X592Y214D01*
X617Y214D02*
X620Y214D01*
X271Y213D02*
X275Y213D01*
X298Y213D02*
X301Y213D01*
X309Y213D02*
X312Y213D01*
X327Y213D02*
X330Y213D01*
X333Y213D02*
X336Y213D01*
X373Y213D02*
X377Y213D01*
X397Y213D02*
X400Y213D01*
X425Y213D02*
X428Y213D01*
X464Y213D02*
X467Y213D01*
X492Y213D02*
X495Y213D01*
X498Y213D02*
X501Y213D01*
X508Y213D02*
X511Y213D01*
X524Y213D02*
X527Y213D01*
X535Y213D02*
X538Y213D01*
X561Y213D02*
X564Y213D01*
X574Y213D02*
X577Y213D01*
X588Y213D02*
X592Y213D01*
X617Y213D02*
X620Y213D01*
X272Y212D02*
X276Y212D01*
X298Y212D02*
X301Y212D01*
X309Y212D02*
X312Y212D01*
X327Y212D02*
X330Y212D01*
X334Y212D02*
X337Y212D01*
X374Y212D02*
X378Y212D01*
X397Y212D02*
X400Y212D01*
X425Y212D02*
X428Y212D01*
X464Y212D02*
X467Y212D01*
X492Y212D02*
X495Y212D01*
X498Y212D02*
X502Y212D01*
X508Y212D02*
X511Y212D01*
X524Y212D02*
X527Y212D01*
X535Y212D02*
X538Y212D01*
X561Y212D02*
X565Y212D01*
X573Y212D02*
X576Y212D01*
X588Y212D02*
X591Y212D01*
X616Y212D02*
X620Y212D01*
X272Y211D02*
X277Y211D01*
X298Y211D02*
X301Y211D01*
X310Y211D02*
X313Y211D01*
X326Y211D02*
X330Y211D01*
X334Y211D02*
X337Y211D01*
X375Y211D02*
X379Y211D01*
X397Y211D02*
X400Y211D01*
X425Y211D02*
X428Y211D01*
X464Y211D02*
X467Y211D01*
X492Y211D02*
X495Y211D01*
X499Y211D02*
X502Y211D01*
X508Y211D02*
X511Y211D01*
X524Y211D02*
X527Y211D01*
X536Y211D02*
X539Y211D01*
X562Y211D02*
X565Y211D01*
X573Y211D02*
X576Y211D01*
X588Y211D02*
X591Y211D01*
X616Y211D02*
X619Y211D01*
X273Y210D02*
X277Y210D01*
X298Y210D02*
X301Y210D01*
X310Y210D02*
X313Y210D01*
X326Y210D02*
X329Y210D01*
X334Y210D02*
X337Y210D01*
X376Y210D02*
X380Y210D01*
X397Y210D02*
X400Y210D01*
X425Y210D02*
X428Y210D01*
X464Y210D02*
X467Y210D01*
X492Y210D02*
X495Y210D01*
X499Y210D02*
X503Y210D01*
X508Y210D02*
X511Y210D01*
X524Y210D02*
X527Y210D01*
X536Y210D02*
X539Y210D01*
X562Y210D02*
X566Y210D01*
X572Y210D02*
X576Y210D01*
X588Y210D02*
X591Y210D01*
X616Y210D02*
X619Y210D01*
X274Y209D02*
X278Y209D01*
X298Y209D02*
X301Y209D01*
X309Y209D02*
X313Y209D01*
X326Y209D02*
X329Y209D01*
X334Y209D02*
X338Y209D01*
X376Y209D02*
X380Y209D01*
X397Y209D02*
X400Y209D01*
X425Y209D02*
X428Y209D01*
X464Y209D02*
X467Y209D01*
X492Y209D02*
X495Y209D01*
X500Y209D02*
X503Y209D01*
X508Y209D02*
X511Y209D01*
X524Y209D02*
X527Y209D01*
X536Y209D02*
X539Y209D01*
X563Y209D02*
X566Y209D01*
X572Y209D02*
X575Y209D01*
X588Y209D02*
X591Y209D01*
X616Y209D02*
X620Y209D01*
X275Y208D02*
X279Y208D01*
X298Y208D02*
X301Y208D01*
X309Y208D02*
X312Y208D01*
X325Y208D02*
X329Y208D01*
X335Y208D02*
X338Y208D01*
X377Y208D02*
X381Y208D01*
X397Y208D02*
X400Y208D01*
X425Y208D02*
X428Y208D01*
X464Y208D02*
X467Y208D01*
X474Y208D02*
X482Y208D01*
X492Y208D02*
X495Y208D01*
X500Y208D02*
X504Y208D01*
X508Y208D02*
X511Y208D01*
X524Y208D02*
X527Y208D01*
X535Y208D02*
X539Y208D01*
X563Y208D02*
X566Y208D01*
X572Y208D02*
X575Y208D01*
X588Y208D02*
X592Y208D01*
X617Y208D02*
X620Y208D01*
X276Y207D02*
X280Y207D01*
X298Y207D02*
X301Y207D01*
X309Y207D02*
X312Y207D01*
X325Y207D02*
X328Y207D01*
X335Y207D02*
X338Y207D01*
X378Y207D02*
X382Y207D01*
X397Y207D02*
X401Y207D01*
X425Y207D02*
X428Y207D01*
X464Y207D02*
X467Y207D01*
X474Y207D02*
X482Y207D01*
X492Y207D02*
X495Y207D01*
X501Y207D02*
X504Y207D01*
X508Y207D02*
X511Y207D01*
X524Y207D02*
X527Y207D01*
X535Y207D02*
X538Y207D01*
X563Y207D02*
X567Y207D01*
X571Y207D02*
X574Y207D01*
X589Y207D02*
X592Y207D01*
X617Y207D02*
X620Y207D01*
X276Y206D02*
X280Y206D01*
X298Y206D02*
X301Y206D01*
X308Y206D02*
X312Y206D01*
X325Y206D02*
X328Y206D01*
X335Y206D02*
X338Y206D01*
X379Y206D02*
X383Y206D01*
X398Y206D02*
X401Y206D01*
X425Y206D02*
X428Y206D01*
X464Y206D02*
X467Y206D01*
X473Y206D02*
X482Y206D01*
X492Y206D02*
X495Y206D01*
X501Y206D02*
X504Y206D01*
X508Y206D02*
X511Y206D01*
X524Y206D02*
X527Y206D01*
X535Y206D02*
X538Y206D01*
X564Y206D02*
X567Y206D01*
X571Y206D02*
X574Y206D01*
X589Y206D02*
X593Y206D01*
X617Y206D02*
X621Y206D01*
X277Y205D02*
X281Y205D01*
X298Y205D02*
X301Y205D01*
X308Y205D02*
X311Y205D01*
X325Y205D02*
X339Y205D01*
X379Y205D02*
X384Y205D01*
X398Y205D02*
X402Y205D01*
X425Y205D02*
X428Y205D01*
X464Y205D02*
X467Y205D01*
X474Y205D02*
X482Y205D01*
X492Y205D02*
X495Y205D01*
X502Y205D02*
X505Y205D01*
X508Y205D02*
X511Y205D01*
X524Y205D02*
X527Y205D01*
X534Y205D02*
X538Y205D01*
X564Y205D02*
X568Y205D01*
X570Y205D02*
X574Y205D01*
X590Y205D02*
X593Y205D01*
X618Y205D02*
X621Y205D01*
X278Y204D02*
X282Y204D01*
X298Y204D02*
X301Y204D01*
X307Y204D02*
X311Y204D01*
X324Y204D02*
X339Y204D01*
X380Y204D02*
X384Y204D01*
X399Y204D02*
X402Y204D01*
X425Y204D02*
X428Y204D01*
X464Y204D02*
X467Y204D01*
X479Y204D02*
X482Y204D01*
X492Y204D02*
X495Y204D01*
X502Y204D02*
X505Y204D01*
X508Y204D02*
X511Y204D01*
X524Y204D02*
X527Y204D01*
X534Y204D02*
X537Y204D01*
X565Y204D02*
X568Y204D01*
X570Y204D02*
X573Y204D01*
X590Y204D02*
X594Y204D01*
X618Y204D02*
X622Y204D01*
X279Y203D02*
X283Y203D01*
X298Y203D02*
X301Y203D01*
X307Y203D02*
X310Y203D01*
X324Y203D02*
X339Y203D01*
X381Y203D02*
X385Y203D01*
X399Y203D02*
X403Y203D01*
X425Y203D02*
X428Y203D01*
X464Y203D02*
X467Y203D01*
X479Y203D02*
X482Y203D01*
X492Y203D02*
X495Y203D01*
X502Y203D02*
X506Y203D01*
X508Y203D02*
X511Y203D01*
X524Y203D02*
X527Y203D01*
X533Y203D02*
X537Y203D01*
X565Y203D02*
X573Y203D01*
X591Y203D02*
X594Y203D01*
X619Y203D02*
X622Y203D01*
X267Y202D02*
X268Y202D01*
X279Y202D02*
X283Y202D01*
X298Y202D02*
X301Y202D01*
X306Y202D02*
X310Y202D01*
X324Y202D02*
X340Y202D01*
X369Y202D02*
X370Y202D01*
X382Y202D02*
X386Y202D01*
X400Y202D02*
X403Y202D01*
X425Y202D02*
X428Y202D01*
X464Y202D02*
X467Y202D01*
X479Y202D02*
X482Y202D01*
X492Y202D02*
X495Y202D01*
X503Y202D02*
X511Y202D01*
X524Y202D02*
X527Y202D01*
X533Y202D02*
X536Y202D01*
X565Y202D02*
X573Y202D01*
X591Y202D02*
X595Y202D01*
X619Y202D02*
X623Y202D01*
X266Y201D02*
X269Y201D01*
X280Y201D02*
X284Y201D01*
X298Y201D02*
X301Y201D01*
X306Y201D02*
X309Y201D01*
X323Y201D02*
X327Y201D01*
X337Y201D02*
X340Y201D01*
X368Y201D02*
X371Y201D01*
X383Y201D02*
X386Y201D01*
X400Y201D02*
X404Y201D01*
X425Y201D02*
X428Y201D01*
X464Y201D02*
X467Y201D01*
X479Y201D02*
X482Y201D01*
X492Y201D02*
X495Y201D01*
X503Y201D02*
X511Y201D01*
X524Y201D02*
X527Y201D01*
X532Y201D02*
X536Y201D01*
X566Y201D02*
X572Y201D01*
X592Y201D02*
X595Y201D01*
X620Y201D02*
X623Y201D01*
X266Y200D02*
X269Y200D01*
X281Y200D02*
X284Y200D01*
X298Y200D02*
X301Y200D01*
X305Y200D02*
X309Y200D01*
X323Y200D02*
X326Y200D01*
X337Y200D02*
X340Y200D01*
X368Y200D02*
X371Y200D01*
X383Y200D02*
X387Y200D01*
X401Y200D02*
X404Y200D01*
X425Y200D02*
X428Y200D01*
X464Y200D02*
X467Y200D01*
X479Y200D02*
X482Y200D01*
X492Y200D02*
X495Y200D01*
X504Y200D02*
X511Y200D01*
X524Y200D02*
X527Y200D01*
X532Y200D02*
X535Y200D01*
X566Y200D02*
X572Y200D01*
X592Y200D02*
X596Y200D01*
X620Y200D02*
X624Y200D01*
X266Y199D02*
X270Y199D01*
X281Y199D02*
X284Y199D01*
X298Y199D02*
X301Y199D01*
X303Y199D02*
X308Y199D01*
X323Y199D02*
X326Y199D01*
X337Y199D02*
X340Y199D01*
X368Y199D02*
X372Y199D01*
X383Y199D02*
X387Y199D01*
X401Y199D02*
X405Y199D01*
X425Y199D02*
X428Y199D01*
X464Y199D02*
X467Y199D01*
X479Y199D02*
X482Y199D01*
X492Y199D02*
X495Y199D01*
X504Y199D02*
X511Y199D01*
X524Y199D02*
X527Y199D01*
X531Y199D02*
X535Y199D01*
X567Y199D02*
X571Y199D01*
X593Y199D02*
X605Y199D01*
X621Y199D02*
X633Y199D01*
X266Y198D02*
X284Y198D01*
X294Y198D02*
X308Y198D01*
X323Y198D02*
X326Y198D01*
X338Y198D02*
X341Y198D01*
X369Y198D02*
X387Y198D01*
X402Y198D02*
X415Y198D01*
X425Y198D02*
X443Y198D01*
X464Y198D02*
X482Y198D01*
X492Y198D02*
X495Y198D01*
X505Y198D02*
X511Y198D01*
X521Y198D02*
X534Y198D01*
X567Y198D02*
X571Y198D01*
X593Y198D02*
X606Y198D01*
X622Y198D02*
X635Y198D01*
X267Y197D02*
X283Y197D01*
X294Y197D02*
X307Y197D01*
X322Y197D02*
X325Y197D01*
X338Y197D02*
X341Y197D01*
X369Y197D02*
X386Y197D01*
X402Y197D02*
X415Y197D01*
X425Y197D02*
X443Y197D01*
X465Y197D02*
X481Y197D01*
X492Y197D02*
X495Y197D01*
X505Y197D02*
X511Y197D01*
X520Y197D02*
X534Y197D01*
X567Y197D02*
X571Y197D01*
X594Y197D02*
X607Y197D01*
X622Y197D02*
X635Y197D01*
X268Y196D02*
X283Y196D01*
X294Y196D02*
X306Y196D01*
X323Y196D02*
X325Y196D01*
X338Y196D02*
X341Y196D01*
X370Y196D02*
X385Y196D01*
X403Y196D02*
X415Y196D01*
X425Y196D02*
X443Y196D01*
X465Y196D02*
X480Y196D01*
X492Y196D02*
X495Y196D01*
X505Y196D02*
X511Y196D01*
X520Y196D02*
X533Y196D01*
X568Y196D02*
X570Y196D01*
X595Y196D02*
X606Y196D01*
X624Y196D02*
X635Y196D01*
X271Y195D02*
X280Y195D01*
X296Y195D02*
X302Y195D01*
X373Y195D02*
X383Y195D01*
X406Y195D02*
X414Y195D01*
X425Y195D02*
X442Y195D01*
X467Y195D02*
X479Y195D01*
X492Y195D02*
X494Y195D01*
X506Y195D02*
X511Y195D01*
X521Y195D02*
X531Y195D01*
X652Y105D02*
X669Y105D01*
X652Y104D02*
X673Y104D01*
X738Y104D02*
X741Y104D01*
X761Y104D02*
X764Y104D01*
X652Y103D02*
X675Y103D01*
X737Y103D02*
X742Y103D01*
X760Y103D02*
X765Y103D01*
X652Y102D02*
X676Y102D01*
X737Y102D02*
X742Y102D01*
X760Y102D02*
X765Y102D01*
X652Y101D02*
X677Y101D01*
X737Y101D02*
X742Y101D01*
X760Y101D02*
X765Y101D01*
X652Y100D02*
X678Y100D01*
X737Y100D02*
X742Y100D01*
X760Y100D02*
X765Y100D01*
X652Y99D02*
X657Y99D01*
X670Y99D02*
X679Y99D01*
X737Y99D02*
X742Y99D01*
X760Y99D02*
X765Y99D01*
X63Y98D02*
X66Y98D01*
X86Y98D02*
X89Y98D01*
X105Y98D02*
X108Y98D01*
X153Y98D02*
X174Y98D01*
X190Y98D02*
X215Y98D01*
X233Y98D02*
X236Y98D01*
X277Y98D02*
X300Y98D01*
X318Y98D02*
X321Y98D01*
X341Y98D02*
X344Y98D01*
X652Y98D02*
X657Y98D01*
X673Y98D02*
X679Y98D01*
X737Y98D02*
X742Y98D01*
X760Y98D02*
X765Y98D01*
X62Y97D02*
X66Y97D01*
X85Y97D02*
X90Y97D01*
X104Y97D02*
X109Y97D01*
X153Y97D02*
X175Y97D01*
X189Y97D02*
X216Y97D01*
X232Y97D02*
X236Y97D01*
X276Y97D02*
X301Y97D01*
X317Y97D02*
X321Y97D01*
X340Y97D02*
X345Y97D01*
X652Y97D02*
X657Y97D01*
X674Y97D02*
X680Y97D01*
X737Y97D02*
X742Y97D01*
X760Y97D02*
X765Y97D01*
X62Y96D02*
X67Y96D01*
X85Y96D02*
X90Y96D01*
X104Y96D02*
X109Y96D01*
X153Y96D02*
X175Y96D01*
X189Y96D02*
X217Y96D01*
X232Y96D02*
X237Y96D01*
X275Y96D02*
X302Y96D01*
X317Y96D02*
X322Y96D01*
X340Y96D02*
X345Y96D01*
X652Y96D02*
X657Y96D01*
X674Y96D02*
X680Y96D01*
X737Y96D02*
X742Y96D01*
X760Y96D02*
X765Y96D01*
X62Y95D02*
X67Y95D01*
X85Y95D02*
X90Y95D01*
X104Y95D02*
X109Y95D01*
X153Y95D02*
X175Y95D01*
X189Y95D02*
X217Y95D01*
X232Y95D02*
X237Y95D01*
X275Y95D02*
X302Y95D01*
X317Y95D02*
X323Y95D01*
X339Y95D02*
X345Y95D01*
X652Y95D02*
X657Y95D01*
X675Y95D02*
X680Y95D01*
X737Y95D02*
X742Y95D01*
X760Y95D02*
X765Y95D01*
X62Y94D02*
X67Y94D01*
X85Y94D02*
X90Y94D01*
X104Y94D02*
X109Y94D01*
X153Y94D02*
X174Y94D01*
X190Y94D02*
X217Y94D01*
X232Y94D02*
X237Y94D01*
X274Y94D02*
X302Y94D01*
X317Y94D02*
X323Y94D01*
X338Y94D02*
X344Y94D01*
X652Y94D02*
X657Y94D01*
X675Y94D02*
X680Y94D01*
X737Y94D02*
X742Y94D01*
X760Y94D02*
X765Y94D01*
X62Y93D02*
X67Y93D01*
X85Y93D02*
X90Y93D01*
X104Y93D02*
X109Y93D01*
X153Y93D02*
X172Y93D01*
X192Y93D02*
X218Y93D01*
X232Y93D02*
X237Y93D01*
X274Y93D02*
X303Y93D01*
X318Y93D02*
X324Y93D01*
X338Y93D02*
X344Y93D01*
X652Y93D02*
X657Y93D01*
X675Y93D02*
X680Y93D01*
X737Y93D02*
X742Y93D01*
X760Y93D02*
X765Y93D01*
X62Y92D02*
X67Y92D01*
X85Y92D02*
X90Y92D01*
X104Y92D02*
X109Y92D01*
X153Y92D02*
X157Y92D01*
X213Y92D02*
X218Y92D01*
X232Y92D02*
X237Y92D01*
X274Y92D02*
X279Y92D01*
X298Y92D02*
X303Y92D01*
X318Y92D02*
X324Y92D01*
X337Y92D02*
X343Y92D01*
X652Y92D02*
X657Y92D01*
X675Y92D02*
X680Y92D01*
X737Y92D02*
X742Y92D01*
X760Y92D02*
X765Y92D01*
X787Y92D02*
X800Y92D01*
X830Y92D02*
X842Y92D01*
X62Y91D02*
X67Y91D01*
X85Y91D02*
X90Y91D01*
X104Y91D02*
X109Y91D01*
X153Y91D02*
X157Y91D01*
X213Y91D02*
X218Y91D01*
X232Y91D02*
X237Y91D01*
X274Y91D02*
X279Y91D01*
X298Y91D02*
X303Y91D01*
X319Y91D02*
X325Y91D01*
X337Y91D02*
X343Y91D01*
X652Y91D02*
X657Y91D01*
X675Y91D02*
X680Y91D01*
X737Y91D02*
X742Y91D01*
X760Y91D02*
X765Y91D01*
X785Y91D02*
X802Y91D01*
X828Y91D02*
X844Y91D01*
X62Y90D02*
X67Y90D01*
X85Y90D02*
X90Y90D01*
X104Y90D02*
X109Y90D01*
X153Y90D02*
X157Y90D01*
X213Y90D02*
X218Y90D01*
X232Y90D02*
X237Y90D01*
X274Y90D02*
X279Y90D01*
X298Y90D02*
X303Y90D01*
X320Y90D02*
X326Y90D01*
X336Y90D02*
X342Y90D01*
X652Y90D02*
X657Y90D01*
X675Y90D02*
X680Y90D01*
X737Y90D02*
X742Y90D01*
X760Y90D02*
X765Y90D01*
X784Y90D02*
X803Y90D01*
X827Y90D02*
X845Y90D01*
X62Y89D02*
X67Y89D01*
X85Y89D02*
X90Y89D01*
X104Y89D02*
X109Y89D01*
X153Y89D02*
X157Y89D01*
X213Y89D02*
X218Y89D01*
X232Y89D02*
X237Y89D01*
X274Y89D02*
X279Y89D01*
X298Y89D02*
X303Y89D01*
X320Y89D02*
X326Y89D01*
X335Y89D02*
X341Y89D01*
X652Y89D02*
X657Y89D01*
X675Y89D02*
X680Y89D01*
X737Y89D02*
X742Y89D01*
X749Y89D02*
X753Y89D01*
X760Y89D02*
X765Y89D01*
X783Y89D02*
X804Y89D01*
X825Y89D02*
X847Y89D01*
X62Y88D02*
X67Y88D01*
X85Y88D02*
X90Y88D01*
X104Y88D02*
X109Y88D01*
X153Y88D02*
X157Y88D01*
X213Y88D02*
X218Y88D01*
X232Y88D02*
X237Y88D01*
X274Y88D02*
X279Y88D01*
X298Y88D02*
X303Y88D01*
X321Y88D02*
X327Y88D01*
X335Y88D02*
X341Y88D01*
X652Y88D02*
X657Y88D01*
X674Y88D02*
X680Y88D01*
X737Y88D02*
X742Y88D01*
X749Y88D02*
X753Y88D01*
X760Y88D02*
X765Y88D01*
X782Y88D02*
X805Y88D01*
X824Y88D02*
X848Y88D01*
X62Y87D02*
X67Y87D01*
X85Y87D02*
X90Y87D01*
X104Y87D02*
X109Y87D01*
X153Y87D02*
X157Y87D01*
X213Y87D02*
X218Y87D01*
X232Y87D02*
X237Y87D01*
X274Y87D02*
X279Y87D01*
X298Y87D02*
X303Y87D01*
X321Y87D02*
X327Y87D01*
X334Y87D02*
X340Y87D01*
X652Y87D02*
X657Y87D01*
X674Y87D02*
X680Y87D01*
X737Y87D02*
X742Y87D01*
X749Y87D02*
X753Y87D01*
X760Y87D02*
X765Y87D01*
X781Y87D02*
X806Y87D01*
X824Y87D02*
X849Y87D01*
X62Y86D02*
X67Y86D01*
X85Y86D02*
X90Y86D01*
X104Y86D02*
X109Y86D01*
X153Y86D02*
X157Y86D01*
X213Y86D02*
X218Y86D01*
X232Y86D02*
X237Y86D01*
X274Y86D02*
X279Y86D01*
X298Y86D02*
X303Y86D01*
X322Y86D02*
X328Y86D01*
X334Y86D02*
X340Y86D01*
X652Y86D02*
X657Y86D01*
X672Y86D02*
X679Y86D01*
X737Y86D02*
X742Y86D01*
X749Y86D02*
X754Y86D01*
X760Y86D02*
X765Y86D01*
X781Y86D02*
X788Y86D01*
X800Y86D02*
X807Y86D01*
X823Y86D02*
X830Y86D01*
X842Y86D02*
X849Y86D01*
X62Y85D02*
X67Y85D01*
X85Y85D02*
X90Y85D01*
X104Y85D02*
X109Y85D01*
X153Y85D02*
X157Y85D01*
X213Y85D02*
X218Y85D01*
X232Y85D02*
X237Y85D01*
X274Y85D02*
X279Y85D01*
X298Y85D02*
X303Y85D01*
X323Y85D02*
X329Y85D01*
X333Y85D02*
X339Y85D01*
X652Y85D02*
X679Y85D01*
X737Y85D02*
X742Y85D01*
X749Y85D02*
X754Y85D01*
X760Y85D02*
X765Y85D01*
X780Y85D02*
X786Y85D01*
X801Y85D02*
X807Y85D01*
X823Y85D02*
X829Y85D01*
X843Y85D02*
X850Y85D01*
X62Y84D02*
X68Y84D01*
X84Y84D02*
X90Y84D01*
X104Y84D02*
X109Y84D01*
X153Y84D02*
X157Y84D01*
X213Y84D02*
X218Y84D01*
X232Y84D02*
X237Y84D01*
X274Y84D02*
X279Y84D01*
X298Y84D02*
X303Y84D01*
X323Y84D02*
X329Y84D01*
X333Y84D02*
X338Y84D01*
X652Y84D02*
X678Y84D01*
X737Y84D02*
X742Y84D01*
X749Y84D02*
X754Y84D01*
X760Y84D02*
X765Y84D01*
X780Y84D02*
X785Y84D01*
X802Y84D02*
X807Y84D01*
X822Y84D02*
X828Y84D01*
X844Y84D02*
X850Y84D01*
X63Y83D02*
X68Y83D01*
X84Y83D02*
X89Y83D01*
X104Y83D02*
X109Y83D01*
X153Y83D02*
X157Y83D01*
X213Y83D02*
X218Y83D01*
X232Y83D02*
X237Y83D01*
X274Y83D02*
X279Y83D01*
X298Y83D02*
X303Y83D01*
X324Y83D02*
X330Y83D01*
X332Y83D02*
X338Y83D01*
X652Y83D02*
X677Y83D01*
X737Y83D02*
X742Y83D01*
X749Y83D02*
X754Y83D01*
X760Y83D02*
X765Y83D01*
X779Y83D02*
X785Y83D01*
X802Y83D02*
X808Y83D01*
X822Y83D02*
X827Y83D01*
X845Y83D02*
X850Y83D01*
X63Y82D02*
X68Y82D01*
X83Y82D02*
X89Y82D01*
X104Y82D02*
X109Y82D01*
X153Y82D02*
X157Y82D01*
X213Y82D02*
X218Y82D01*
X232Y82D02*
X237Y82D01*
X274Y82D02*
X279Y82D01*
X298Y82D02*
X303Y82D01*
X324Y82D02*
X337Y82D01*
X652Y82D02*
X676Y82D01*
X737Y82D02*
X742Y82D01*
X749Y82D02*
X754Y82D01*
X760Y82D02*
X765Y82D01*
X779Y82D02*
X784Y82D01*
X803Y82D02*
X808Y82D01*
X822Y82D02*
X827Y82D01*
X845Y82D02*
X850Y82D01*
X63Y81D02*
X69Y81D01*
X83Y81D02*
X88Y81D01*
X104Y81D02*
X109Y81D01*
X153Y81D02*
X157Y81D01*
X212Y81D02*
X217Y81D01*
X232Y81D02*
X237Y81D01*
X274Y81D02*
X279Y81D01*
X298Y81D02*
X303Y81D01*
X325Y81D02*
X337Y81D01*
X652Y81D02*
X677Y81D01*
X737Y81D02*
X742Y81D01*
X749Y81D02*
X754Y81D01*
X760Y81D02*
X765Y81D01*
X779Y81D02*
X784Y81D01*
X803Y81D02*
X808Y81D01*
X822Y81D02*
X827Y81D01*
X845Y81D02*
X850Y81D01*
X64Y80D02*
X69Y80D01*
X83Y80D02*
X88Y80D01*
X104Y80D02*
X109Y80D01*
X153Y80D02*
X157Y80D01*
X212Y80D02*
X217Y80D01*
X232Y80D02*
X237Y80D01*
X274Y80D02*
X279Y80D01*
X298Y80D02*
X303Y80D01*
X325Y80D02*
X336Y80D01*
X652Y80D02*
X678Y80D01*
X737Y80D02*
X742Y80D01*
X749Y80D02*
X754Y80D01*
X760Y80D02*
X765Y80D01*
X779Y80D02*
X784Y80D01*
X803Y80D02*
X808Y80D01*
X822Y80D02*
X827Y80D01*
X845Y80D02*
X850Y80D01*
X64Y79D02*
X70Y79D01*
X82Y79D02*
X88Y79D01*
X104Y79D02*
X109Y79D01*
X153Y79D02*
X158Y79D01*
X210Y79D02*
X217Y79D01*
X232Y79D02*
X237Y79D01*
X274Y79D02*
X279Y79D01*
X298Y79D02*
X303Y79D01*
X326Y79D02*
X336Y79D01*
X652Y79D02*
X657Y79D01*
X670Y79D02*
X679Y79D01*
X737Y79D02*
X742Y79D01*
X749Y79D02*
X754Y79D01*
X760Y79D02*
X765Y79D01*
X779Y79D02*
X784Y79D01*
X803Y79D02*
X808Y79D01*
X822Y79D02*
X827Y79D01*
X845Y79D02*
X850Y79D01*
X65Y78D02*
X70Y78D01*
X82Y78D02*
X87Y78D01*
X104Y78D02*
X109Y78D01*
X153Y78D02*
X172Y78D01*
X196Y78D02*
X217Y78D01*
X232Y78D02*
X237Y78D01*
X274Y78D02*
X279Y78D01*
X298Y78D02*
X303Y78D01*
X327Y78D02*
X335Y78D01*
X652Y78D02*
X657Y78D01*
X673Y78D02*
X679Y78D01*
X737Y78D02*
X742Y78D01*
X749Y78D02*
X754Y78D01*
X760Y78D02*
X765Y78D01*
X779Y78D02*
X784Y78D01*
X803Y78D02*
X808Y78D01*
X822Y78D02*
X827Y78D01*
X845Y78D02*
X850Y78D01*
X65Y77D02*
X70Y77D01*
X81Y77D02*
X87Y77D01*
X104Y77D02*
X109Y77D01*
X153Y77D02*
X173Y77D01*
X195Y77D02*
X216Y77D01*
X232Y77D02*
X237Y77D01*
X274Y77D02*
X279Y77D01*
X298Y77D02*
X303Y77D01*
X327Y77D02*
X334Y77D01*
X652Y77D02*
X657Y77D01*
X674Y77D02*
X680Y77D01*
X737Y77D02*
X742Y77D01*
X749Y77D02*
X754Y77D01*
X760Y77D02*
X765Y77D01*
X779Y77D02*
X784Y77D01*
X803Y77D02*
X808Y77D01*
X822Y77D02*
X827Y77D01*
X845Y77D02*
X850Y77D01*
X65Y76D02*
X71Y76D01*
X81Y76D02*
X86Y76D01*
X104Y76D02*
X109Y76D01*
X153Y76D02*
X174Y76D01*
X195Y76D02*
X215Y76D01*
X232Y76D02*
X237Y76D01*
X274Y76D02*
X279Y76D01*
X298Y76D02*
X303Y76D01*
X328Y76D02*
X334Y76D01*
X652Y76D02*
X657Y76D01*
X674Y76D02*
X680Y76D01*
X737Y76D02*
X742Y76D01*
X749Y76D02*
X754Y76D01*
X760Y76D02*
X765Y76D01*
X779Y76D02*
X784Y76D01*
X803Y76D02*
X808Y76D01*
X822Y76D02*
X827Y76D01*
X845Y76D02*
X850Y76D01*
X66Y75D02*
X71Y75D01*
X81Y75D02*
X86Y75D01*
X104Y75D02*
X109Y75D01*
X153Y75D02*
X175Y75D01*
X195Y75D02*
X216Y75D01*
X232Y75D02*
X237Y75D01*
X274Y75D02*
X279Y75D01*
X298Y75D02*
X303Y75D01*
X327Y75D02*
X334Y75D01*
X652Y75D02*
X657Y75D01*
X675Y75D02*
X680Y75D01*
X737Y75D02*
X742Y75D01*
X749Y75D02*
X754Y75D01*
X760Y75D02*
X765Y75D01*
X779Y75D02*
X784Y75D01*
X803Y75D02*
X808Y75D01*
X822Y75D02*
X827Y75D01*
X845Y75D02*
X850Y75D01*
X66Y74D02*
X72Y74D01*
X80Y74D02*
X86Y74D01*
X104Y74D02*
X109Y74D01*
X153Y74D02*
X175Y74D01*
X196Y74D02*
X217Y74D01*
X232Y74D02*
X237Y74D01*
X274Y74D02*
X279Y74D01*
X298Y74D02*
X303Y74D01*
X327Y74D02*
X335Y74D01*
X652Y74D02*
X657Y74D01*
X675Y74D02*
X680Y74D01*
X737Y74D02*
X742Y74D01*
X749Y74D02*
X754Y74D01*
X760Y74D02*
X765Y74D01*
X779Y74D02*
X784Y74D01*
X803Y74D02*
X808Y74D01*
X822Y74D02*
X827Y74D01*
X845Y74D02*
X850Y74D01*
X66Y73D02*
X72Y73D01*
X80Y73D02*
X85Y73D01*
X104Y73D02*
X109Y73D01*
X153Y73D02*
X175Y73D01*
X198Y73D02*
X217Y73D01*
X232Y73D02*
X237Y73D01*
X274Y73D02*
X279Y73D01*
X298Y73D02*
X303Y73D01*
X326Y73D02*
X335Y73D01*
X652Y73D02*
X657Y73D01*
X675Y73D02*
X680Y73D01*
X737Y73D02*
X742Y73D01*
X749Y73D02*
X754Y73D01*
X760Y73D02*
X765Y73D01*
X779Y73D02*
X784Y73D01*
X803Y73D02*
X808Y73D01*
X822Y73D02*
X827Y73D01*
X845Y73D02*
X850Y73D01*
X67Y72D02*
X72Y72D01*
X79Y72D02*
X85Y72D01*
X104Y72D02*
X109Y72D01*
X170Y72D02*
X175Y72D01*
X212Y72D02*
X217Y72D01*
X232Y72D02*
X237Y72D01*
X274Y72D02*
X279Y72D01*
X298Y72D02*
X303Y72D01*
X326Y72D02*
X336Y72D01*
X652Y72D02*
X657Y72D01*
X675Y72D02*
X680Y72D01*
X737Y72D02*
X742Y72D01*
X749Y72D02*
X754Y72D01*
X760Y72D02*
X765Y72D01*
X779Y72D02*
X784Y72D01*
X803Y72D02*
X808Y72D01*
X822Y72D02*
X827Y72D01*
X845Y72D02*
X850Y72D01*
X67Y71D02*
X73Y71D01*
X79Y71D02*
X84Y71D01*
X104Y71D02*
X109Y71D01*
X170Y71D02*
X175Y71D01*
X212Y71D02*
X217Y71D01*
X232Y71D02*
X237Y71D01*
X274Y71D02*
X279Y71D01*
X298Y71D02*
X303Y71D01*
X325Y71D02*
X337Y71D01*
X652Y71D02*
X657Y71D01*
X675Y71D02*
X680Y71D01*
X737Y71D02*
X742Y71D01*
X749Y71D02*
X754Y71D01*
X760Y71D02*
X765Y71D01*
X779Y71D02*
X784Y71D01*
X803Y71D02*
X808Y71D01*
X822Y71D02*
X827Y71D01*
X845Y71D02*
X850Y71D01*
X68Y70D02*
X73Y70D01*
X79Y70D02*
X84Y70D01*
X104Y70D02*
X109Y70D01*
X170Y70D02*
X175Y70D01*
X213Y70D02*
X218Y70D01*
X232Y70D02*
X237Y70D01*
X274Y70D02*
X279Y70D01*
X298Y70D02*
X303Y70D01*
X324Y70D02*
X337Y70D01*
X652Y70D02*
X657Y70D01*
X675Y70D02*
X680Y70D01*
X737Y70D02*
X742Y70D01*
X749Y70D02*
X754Y70D01*
X760Y70D02*
X765Y70D01*
X779Y70D02*
X784Y70D01*
X803Y70D02*
X808Y70D01*
X822Y70D02*
X827Y70D01*
X845Y70D02*
X850Y70D01*
X68Y69D02*
X74Y69D01*
X78Y69D02*
X84Y69D01*
X104Y69D02*
X109Y69D01*
X170Y69D02*
X175Y69D01*
X213Y69D02*
X218Y69D01*
X232Y69D02*
X237Y69D01*
X274Y69D02*
X279Y69D01*
X298Y69D02*
X303Y69D01*
X324Y69D02*
X330Y69D01*
X332Y69D02*
X338Y69D01*
X652Y69D02*
X657Y69D01*
X675Y69D02*
X680Y69D01*
X737Y69D02*
X742Y69D01*
X749Y69D02*
X754Y69D01*
X760Y69D02*
X765Y69D01*
X779Y69D02*
X784Y69D01*
X803Y69D02*
X808Y69D01*
X822Y69D02*
X827Y69D01*
X845Y69D02*
X850Y69D01*
X68Y68D02*
X74Y68D01*
X78Y68D02*
X83Y68D01*
X104Y68D02*
X109Y68D01*
X170Y68D02*
X175Y68D01*
X213Y68D02*
X218Y68D01*
X232Y68D02*
X237Y68D01*
X274Y68D02*
X279Y68D01*
X298Y68D02*
X303Y68D01*
X323Y68D02*
X329Y68D01*
X332Y68D02*
X338Y68D01*
X652Y68D02*
X657Y68D01*
X674Y68D02*
X680Y68D01*
X737Y68D02*
X742Y68D01*
X748Y68D02*
X754Y68D01*
X760Y68D02*
X765Y68D01*
X780Y68D02*
X785Y68D01*
X802Y68D02*
X808Y68D01*
X822Y68D02*
X827Y68D01*
X845Y68D02*
X850Y68D01*
X69Y67D02*
X74Y67D01*
X78Y67D02*
X83Y67D01*
X104Y67D02*
X109Y67D01*
X170Y67D02*
X175Y67D01*
X213Y67D02*
X218Y67D01*
X232Y67D02*
X237Y67D01*
X274Y67D02*
X279Y67D01*
X298Y67D02*
X303Y67D01*
X323Y67D02*
X329Y67D01*
X333Y67D02*
X339Y67D01*
X652Y67D02*
X657Y67D01*
X674Y67D02*
X680Y67D01*
X737Y67D02*
X742Y67D01*
X748Y67D02*
X754Y67D01*
X760Y67D02*
X765Y67D01*
X780Y67D02*
X786Y67D01*
X801Y67D02*
X807Y67D01*
X822Y67D02*
X828Y67D01*
X844Y67D02*
X850Y67D01*
X69Y66D02*
X75Y66D01*
X77Y66D02*
X83Y66D01*
X104Y66D02*
X109Y66D01*
X170Y66D02*
X175Y66D01*
X213Y66D02*
X218Y66D01*
X232Y66D02*
X237Y66D01*
X274Y66D02*
X279Y66D01*
X298Y66D02*
X303Y66D01*
X322Y66D02*
X328Y66D01*
X334Y66D02*
X340Y66D01*
X652Y66D02*
X657Y66D01*
X672Y66D02*
X679Y66D01*
X737Y66D02*
X743Y66D01*
X747Y66D02*
X755Y66D01*
X759Y66D02*
X765Y66D01*
X780Y66D02*
X787Y66D01*
X800Y66D02*
X807Y66D01*
X823Y66D02*
X830Y66D01*
X842Y66D02*
X849Y66D01*
X70Y65D02*
X75Y65D01*
X77Y65D02*
X82Y65D01*
X104Y65D02*
X109Y65D01*
X170Y65D02*
X175Y65D01*
X213Y65D02*
X218Y65D01*
X232Y65D02*
X237Y65D01*
X274Y65D02*
X279Y65D01*
X298Y65D02*
X303Y65D01*
X321Y65D02*
X327Y65D01*
X334Y65D02*
X340Y65D01*
X652Y65D02*
X657Y65D01*
X669Y65D02*
X679Y65D01*
X738Y65D02*
X744Y65D01*
X747Y65D02*
X756Y65D01*
X758Y65D02*
X765Y65D01*
X781Y65D02*
X789Y65D01*
X798Y65D02*
X806Y65D01*
X823Y65D02*
X832Y65D01*
X840Y65D02*
X849Y65D01*
X70Y64D02*
X82Y64D01*
X104Y64D02*
X109Y64D01*
X170Y64D02*
X175Y64D01*
X213Y64D02*
X218Y64D01*
X232Y64D02*
X237Y64D01*
X274Y64D02*
X279Y64D01*
X298Y64D02*
X303Y64D01*
X321Y64D02*
X327Y64D01*
X335Y64D02*
X341Y64D01*
X652Y64D02*
X678Y64D01*
X738Y64D02*
X764Y64D01*
X781Y64D02*
X806Y64D01*
X824Y64D02*
X848Y64D01*
X70Y63D02*
X81Y63D01*
X104Y63D02*
X109Y63D01*
X170Y63D02*
X175Y63D01*
X213Y63D02*
X218Y63D01*
X232Y63D02*
X237Y63D01*
X274Y63D02*
X279Y63D01*
X298Y63D02*
X303Y63D01*
X320Y63D02*
X326Y63D01*
X335Y63D02*
X341Y63D01*
X652Y63D02*
X677Y63D01*
X739Y63D02*
X763Y63D01*
X782Y63D02*
X805Y63D01*
X825Y63D02*
X847Y63D01*
X71Y62D02*
X81Y62D01*
X104Y62D02*
X109Y62D01*
X170Y62D02*
X175Y62D01*
X213Y62D02*
X218Y62D01*
X232Y62D02*
X237Y62D01*
X274Y62D02*
X279Y62D01*
X298Y62D02*
X303Y62D01*
X320Y62D02*
X326Y62D01*
X336Y62D02*
X342Y62D01*
X652Y62D02*
X676Y62D01*
X739Y62D02*
X763Y62D01*
X784Y62D02*
X803Y62D01*
X826Y62D02*
X846Y62D01*
X71Y61D02*
X81Y61D01*
X104Y61D02*
X109Y61D01*
X148Y61D02*
X150Y61D01*
X170Y61D02*
X175Y61D01*
X213Y61D02*
X218Y61D01*
X232Y61D02*
X237Y61D01*
X274Y61D02*
X279Y61D01*
X298Y61D02*
X303Y61D01*
X319Y61D02*
X325Y61D01*
X337Y61D02*
X343Y61D01*
X652Y61D02*
X675Y61D01*
X740Y61D02*
X762Y61D01*
X785Y61D02*
X802Y61D01*
X827Y61D02*
X845Y61D01*
X72Y60D02*
X80Y60D01*
X104Y60D02*
X109Y60D01*
X147Y60D02*
X152Y60D01*
X170Y60D02*
X175Y60D01*
X213Y60D02*
X218Y60D01*
X232Y60D02*
X237Y60D01*
X274Y60D02*
X279Y60D01*
X298Y60D02*
X303Y60D01*
X319Y60D02*
X324Y60D01*
X337Y60D02*
X343Y60D01*
X652Y60D02*
X673Y60D01*
X741Y60D02*
X750Y60D01*
X752Y60D02*
X761Y60D01*
X786Y60D02*
X801Y60D01*
X829Y60D02*
X843Y60D01*
X72Y59D02*
X80Y59D01*
X104Y59D02*
X109Y59D01*
X147Y59D02*
X155Y59D01*
X170Y59D02*
X175Y59D01*
X212Y59D02*
X218Y59D01*
X232Y59D02*
X237Y59D01*
X274Y59D02*
X279Y59D01*
X297Y59D02*
X303Y59D01*
X318Y59D02*
X324Y59D01*
X338Y59D02*
X344Y59D01*
X72Y58D02*
X79Y58D01*
X104Y58D02*
X132Y58D01*
X147Y58D02*
X175Y58D01*
X190Y58D02*
X217Y58D01*
X232Y58D02*
X259Y58D01*
X274Y58D02*
X302Y58D01*
X317Y58D02*
X323Y58D01*
X338Y58D02*
X344Y58D01*
X73Y57D02*
X79Y57D01*
X104Y57D02*
X132Y57D01*
X147Y57D02*
X175Y57D01*
X189Y57D02*
X217Y57D01*
X232Y57D02*
X260Y57D01*
X274Y57D02*
X302Y57D01*
X317Y57D02*
X323Y57D01*
X339Y57D02*
X345Y57D01*
X73Y56D02*
X79Y56D01*
X104Y56D02*
X133Y56D01*
X148Y56D02*
X174Y56D01*
X189Y56D02*
X217Y56D01*
X232Y56D02*
X260Y56D01*
X275Y56D02*
X302Y56D01*
X317Y56D02*
X322Y56D01*
X339Y56D02*
X345Y56D01*
X74Y55D02*
X78Y55D01*
X104Y55D02*
X132Y55D01*
X150Y55D02*
X173Y55D01*
X189Y55D02*
X216Y55D01*
X232Y55D02*
X260Y55D01*
X276Y55D02*
X301Y55D01*
X317Y55D02*
X322Y55D01*
X340Y55D02*
X345Y55D01*
X74Y54D02*
X78Y54D01*
X104Y54D02*
X132Y54D01*
X152Y54D02*
X172Y54D01*
X190Y54D02*
X215Y54D01*
X232Y54D02*
X259Y54D01*
X277Y54D02*
X300Y54D01*
X317Y54D02*
X321Y54D01*
X341Y54D02*
X344Y54D01*
X76Y53D02*
X76Y53D01*
X105Y53D02*
X130Y53D01*
X156Y53D02*
X170Y53D01*
X192Y53D02*
X212Y53D01*
X232Y53D02*
X258Y53D01*
X279Y53D02*
X297Y53D01*
X319Y53D02*
X319Y53D01*
D02*
G04 End of Copper1*
M02*